<?xml version="1.0" encoding="UTF-8" standalone="no"?>
<!DOCTYPE svg PUBLIC "-//W3C//DTD SVG 1.1//EN"
 "http://www.w3.org/Graphics/SVG/1.1/DTD/svg11.dtd">
<!-- Generated by graphviz version 2.36.0 (20140111.2315)
 -->
<!-- Title: classes_modifiedSympy Pages: 1 -->
<svg width="390pt" height="290pt"
 viewBox="0.00 0.00 390.00 290.00" xmlns="http://www.w3.org/2000/svg" xmlns:xlink="http://www.w3.org/1999/xlink">
<g id="graph0" class="graph" transform="scale(1 1) rotate(0) translate(4 286)">
<title>classes_modifiedSympy</title>
<polygon fill="white" stroke="none" points="-4,4 -4,-286 386,-286 386,4 -4,4"/>
<!-- 0 -->
<g id="node1" class="node"><title>0</title>
<polygon fill="none" stroke="black" points="16,-0.5 16,-99.5 104,-99.5 104,-0.5 16,-0.5"/>
<text text-anchor="middle" x="60" y="-84.3" font-family="Times,serif" font-size="14.00">ArcModified</text>
<polyline fill="none" stroke="black" points="16,-76.5 104,-76.5 "/>
<text text-anchor="start" x="24" y="-61.3" font-family="Times,serif" font-size="14.00">obj</text>
<text text-anchor="start" x="24" y="-46.3" font-family="Times,serif" font-size="14.00">t2</text>
<text text-anchor="start" x="24" y="-31.3" font-family="Times,serif" font-size="14.00">t1</text>
<polyline fill="none" stroke="black" points="16,-23.5 104,-23.5 "/>
<text text-anchor="middle" x="60" y="-8.3" font-family="Times,serif" font-size="14.00"> </text>
</g>
<!-- 1 -->
<g id="node2" class="node"><title>1</title>
<polygon fill="none" stroke="black" points="0,-137 0,-281 120,-281 120,-137 0,-137"/>
<text text-anchor="middle" x="60" y="-265.8" font-family="Times,serif" font-size="14.00">CircleModified</text>
<polyline fill="none" stroke="black" points="0,-258 120,-258 "/>
<text text-anchor="start" x="8" y="-242.8" font-family="Times,serif" font-size="14.00">obj</text>
<polyline fill="none" stroke="black" points="0,-235 120,-235 "/>
<text text-anchor="start" x="8" y="-219.8" font-family="Times,serif" font-size="14.00">IPE()</text>
<text text-anchor="start" x="8" y="-204.8" font-family="Times,serif" font-size="14.00">firstDerivative()</text>
<text text-anchor="start" x="8" y="-189.8" font-family="Times,serif" font-size="14.00">tangentAngle()</text>
<text text-anchor="start" x="8" y="-174.8" font-family="Times,serif" font-size="14.00">DPE()</text>
<text text-anchor="start" x="8" y="-159.8" font-family="Times,serif" font-size="14.00">curvature()</text>
<text text-anchor="start" x="8" y="-144.8" font-family="Times,serif" font-size="14.00">secondDerivative()</text>
</g>
<!-- 0&#45;&gt;1 -->
<g id="edge1" class="edge"><title>0&#45;&gt;1</title>
<path fill="none" stroke="black" d="M60,-99.8152C60,-108.317 60,-117.364 60,-126.466"/>
<polygon fill="none" stroke="black" points="56.5001,-126.739 60,-136.739 63.5001,-126.739 56.5001,-126.739"/>
</g>
<!-- 2 -->
<g id="node3" class="node"><title>2</title>
<polygon fill="none" stroke="black" points="182,-137 182,-281 302,-281 302,-137 182,-137"/>
<text text-anchor="middle" x="242" y="-265.8" font-family="Times,serif" font-size="14.00">LineModified</text>
<polyline fill="none" stroke="black" points="182,-258 302,-258 "/>
<text text-anchor="start" x="190" y="-242.8" font-family="Times,serif" font-size="14.00">obj</text>
<polyline fill="none" stroke="black" points="182,-235 302,-235 "/>
<text text-anchor="start" x="190" y="-219.8" font-family="Times,serif" font-size="14.00">IPE()</text>
<text text-anchor="start" x="190" y="-204.8" font-family="Times,serif" font-size="14.00">firstDerivative()</text>
<text text-anchor="start" x="190" y="-189.8" font-family="Times,serif" font-size="14.00">tangentAngle()</text>
<text text-anchor="start" x="190" y="-174.8" font-family="Times,serif" font-size="14.00">DPE()</text>
<text text-anchor="start" x="190" y="-159.8" font-family="Times,serif" font-size="14.00">curvature()</text>
<text text-anchor="start" x="190" y="-144.8" font-family="Times,serif" font-size="14.00">secondDerivative()</text>
</g>
<!-- 3 -->
<g id="node4" class="node"><title>3</title>
<polygon fill="none" stroke="black" points="159.5,-8 159.5,-92 248.5,-92 248.5,-8 159.5,-8"/>
<text text-anchor="middle" x="204" y="-76.8" font-family="Times,serif" font-size="14.00">RayModified</text>
<polyline fill="none" stroke="black" points="159.5,-69 248.5,-69 "/>
<text text-anchor="start" x="167.5" y="-53.8" font-family="Times,serif" font-size="14.00">obj</text>
<polyline fill="none" stroke="black" points="159.5,-46 248.5,-46 "/>
<text text-anchor="start" x="167.5" y="-30.8" font-family="Times,serif" font-size="14.00">DPE()</text>
<text text-anchor="start" x="167.5" y="-15.8" font-family="Times,serif" font-size="14.00">IPE()</text>
</g>
<!-- 3&#45;&gt;2 -->
<g id="edge2" class="edge"><title>3&#45;&gt;2</title>
<path fill="none" stroke="black" d="M213.984,-92.2499C216.578,-102.968 219.464,-114.891 222.37,-126.896"/>
<polygon fill="none" stroke="black" points="219.055,-128.079 224.809,-136.975 225.858,-126.432 219.055,-128.079"/>
</g>
<!-- 4 -->
<g id="node5" class="node"><title>4</title>
<polygon fill="none" stroke="black" points="266,-8 266,-92 382,-92 382,-8 266,-8"/>
<text text-anchor="middle" x="324" y="-76.8" font-family="Times,serif" font-size="14.00">SegmentModified</text>
<polyline fill="none" stroke="black" points="266,-69 382,-69 "/>
<text text-anchor="start" x="274" y="-53.8" font-family="Times,serif" font-size="14.00">obj</text>
<polyline fill="none" stroke="black" points="266,-46 382,-46 "/>
<text text-anchor="start" x="274" y="-30.8" font-family="Times,serif" font-size="14.00">DPE()</text>
<text text-anchor="start" x="274" y="-15.8" font-family="Times,serif" font-size="14.00">IPE()</text>
</g>
<!-- 4&#45;&gt;2 -->
<g id="edge3" class="edge"><title>4&#45;&gt;2</title>
<path fill="none" stroke="black" d="M302.455,-92.2499C296.69,-103.289 290.256,-115.608 283.795,-127.977"/>
<polygon fill="none" stroke="black" points="280.623,-126.491 279.096,-136.975 286.828,-129.732 280.623,-126.491"/>
</g>
</g>
</svg>
