<?xml version="1.0" encoding="UTF-8" standalone="no"?>
<!DOCTYPE svg PUBLIC "-//W3C//DTD SVG 1.1//EN"
 "http://www.w3.org/Graphics/SVG/1.1/DTD/svg11.dtd">
<!-- Generated by graphviz version 2.36.0 (20140111.2315)
 -->
<!-- Title: classes_subdivision Pages: 1 -->
<svg width="638pt" height="592pt"
 viewBox="0.00 0.00 638.00 592.00" xmlns="http://www.w3.org/2000/svg" xmlns:xlink="http://www.w3.org/1999/xlink">
<g id="graph0" class="graph" transform="scale(1 1) rotate(0) translate(4 588)">
<title>classes_subdivision</title>
<polygon fill="white" stroke="none" points="-4,4 -4,-588 634,-588 634,4 -4,4"/>
<!-- 0 -->
<g id="node1" class="node"><title>0</title>
<polygon fill="none" stroke="black" points="12.5,-1 12.5,-235 165.5,-235 165.5,-1 12.5,-1"/>
<text text-anchor="middle" x="89" y="-219.8" font-family="Times,serif" font-size="14.00">Decomposition</text>
<polyline fill="none" stroke="black" points="12.5,-212 165.5,-212 "/>
<text text-anchor="start" x="20.5" y="-196.8" font-family="Times,serif" font-size="14.00">graph</text>
<text text-anchor="start" x="20.5" y="-181.8" font-family="Times,serif" font-size="14.00">superFace : NoneType</text>
<text text-anchor="start" x="20.5" y="-166.8" font-family="Times,serif" font-size="14.00">curves</text>
<text text-anchor="start" x="20.5" y="-151.8" font-family="Times,serif" font-size="14.00">faces : tuple</text>
<polyline fill="none" stroke="black" points="12.5,-144 165.5,-144 "/>
<text text-anchor="start" x="20.5" y="-128.8" font-family="Times,serif" font-size="14.00">does_enclose()</text>
<text text-anchor="start" x="20.5" y="-113.8" font-family="Times,serif" font-size="14.00">find_face()</text>
<text text-anchor="start" x="20.5" y="-98.8" font-family="Times,serif" font-size="14.00">does_overlap()</text>
<text text-anchor="start" x="20.5" y="-83.8" font-family="Times,serif" font-size="14.00">get_extents()</text>
<text text-anchor="start" x="20.5" y="-68.8" font-family="Times,serif" font-size="14.00">update_face_path()</text>
<text text-anchor="start" x="20.5" y="-53.8" font-family="Times,serif" font-size="14.00">does_intersect()</text>
<text text-anchor="start" x="20.5" y="-38.8" font-family="Times,serif" font-size="14.00">find_mutual_halfEdges()</text>
<text text-anchor="start" x="20.5" y="-23.8" font-family="Times,serif" font-size="14.00">find_neighbours()</text>
<text text-anchor="start" x="20.5" y="-8.8" font-family="Times,serif" font-size="14.00">__init__()</text>
</g>
<!-- 4 -->
<g id="node5" class="node"><title>4</title>
<polygon fill="none" stroke="black" points="-0.5,-289 -0.5,-583 178.5,-583 178.5,-289 -0.5,-289"/>
<text text-anchor="middle" x="89" y="-567.8" font-family="Times,serif" font-size="14.00">Subdivision</text>
<polyline fill="none" stroke="black" points="-0.5,-560 178.5,-560 "/>
<text text-anchor="start" x="7.5" y="-544.8" font-family="Times,serif" font-size="14.00">graph : MultiDiGraph</text>
<text text-anchor="start" x="7.5" y="-529.8" font-family="Times,serif" font-size="14.00">_multiProcessing : int</text>
<text text-anchor="start" x="7.5" y="-514.8" font-family="Times,serif" font-size="14.00">decomposition</text>
<text text-anchor="start" x="7.5" y="-499.8" font-family="Times,serif" font-size="14.00">curves : list</text>
<text text-anchor="start" x="7.5" y="-484.8" font-family="Times,serif" font-size="14.00">_subDecompositions : list</text>
<polyline fill="none" stroke="black" points="-0.5,-477 178.5,-477 "/>
<text text-anchor="start" x="7.5" y="-461.8" font-family="Times,serif" font-size="14.00">_find_successor_HalfEdge()</text>
<text text-anchor="start" x="7.5" y="-446.8" font-family="Times,serif" font-size="14.00">_store_curves()</text>
<text text-anchor="start" x="7.5" y="-431.8" font-family="Times,serif" font-size="14.00">_decompose_graph()</text>
<text text-anchor="start" x="7.5" y="-416.8" font-family="Times,serif" font-size="14.00">merge_faces()</text>
<text text-anchor="start" x="7.5" y="-401.8" font-family="Times,serif" font-size="14.00">_construct_edges()</text>
<text text-anchor="start" x="7.5" y="-386.8" font-family="Times,serif" font-size="14.00">_decompose()</text>
<text text-anchor="start" x="7.5" y="-371.8" font-family="Times,serif" font-size="14.00">save_to_image()</text>
<text text-anchor="start" x="7.5" y="-356.8" font-family="Times,serif" font-size="14.00">transform_sequence()</text>
<text text-anchor="start" x="7.5" y="-341.8" font-family="Times,serif" font-size="14.00">update_with_new_functions()</text>
<text text-anchor="start" x="7.5" y="-326.8" font-family="Times,serif" font-size="14.00">_find_punch_holes()</text>
<text text-anchor="start" x="7.5" y="-311.8" font-family="Times,serif" font-size="14.00">_construct_nodes()</text>
<text text-anchor="start" x="7.5" y="-296.8" font-family="Times,serif" font-size="14.00">__init__()</text>
</g>
<!-- 0&#45;&gt;4 -->
<g id="edge1" class="edge"><title>0&#45;&gt;4</title>
<path fill="none" stroke="black" d="M89,-235.321C89,-248.795 89,-262.706 89,-276.62"/>
<polygon fill="black" stroke="black" points="89.0001,-276.838 93,-282.838 89,-288.838 85,-282.838 89.0001,-276.838"/>
<text text-anchor="middle" x="129.5" y="-258.3" font-family="Times,serif" font-size="14.00" fill="green">decomposition</text>
</g>
<!-- 1 -->
<g id="node2" class="node"><title>1</title>
<polygon fill="none" stroke="black" points="184,-16 184,-220 332,-220 332,-16 184,-16"/>
<text text-anchor="middle" x="258" y="-204.8" font-family="Times,serif" font-size="14.00">Face</text>
<polyline fill="none" stroke="black" points="184,-197 332,-197 "/>
<text text-anchor="start" x="192" y="-181.8" font-family="Times,serif" font-size="14.00">path : Path</text>
<text text-anchor="start" x="192" y="-166.8" font-family="Times,serif" font-size="14.00">halfEdges</text>
<text text-anchor="start" x="192" y="-151.8" font-family="Times,serif" font-size="14.00">holes : tuple</text>
<text text-anchor="start" x="192" y="-136.8" font-family="Times,serif" font-size="14.00">attributes : dict</text>
<polyline fill="none" stroke="black" points="184,-129 332,-129 "/>
<text text-anchor="start" x="192" y="-113.8" font-family="Times,serif" font-size="14.00">punch_hole()</text>
<text text-anchor="start" x="192" y="-98.8" font-family="Times,serif" font-size="14.00">is_point_inside()</text>
<text text-anchor="start" x="192" y="-83.8" font-family="Times,serif" font-size="14.00">get_area()</text>
<text text-anchor="start" x="192" y="-68.8" font-family="Times,serif" font-size="14.00">update_path()</text>
<text text-anchor="start" x="192" y="-53.8" font-family="Times,serif" font-size="14.00">get_all_halfEdges_Idx()</text>
<text text-anchor="start" x="192" y="-38.8" font-family="Times,serif" font-size="14.00">get_punched_path()</text>
<text text-anchor="start" x="192" y="-23.8" font-family="Times,serif" font-size="14.00">__init__()</text>
</g>
<!-- 2 -->
<g id="node3" class="node"><title>2</title>
<polygon fill="none" stroke="black" points="350.5,-38.5 350.5,-197.5 477.5,-197.5 477.5,-38.5 350.5,-38.5"/>
<text text-anchor="middle" x="414" y="-182.3" font-family="Times,serif" font-size="14.00">HalfEdge</text>
<polyline fill="none" stroke="black" points="350.5,-174.5 477.5,-174.5 "/>
<text text-anchor="start" x="358.5" y="-159.3" font-family="Times,serif" font-size="14.00">succIdx : NoneType</text>
<text text-anchor="start" x="358.5" y="-144.3" font-family="Times,serif" font-size="14.00">direction</text>
<text text-anchor="start" x="358.5" y="-129.3" font-family="Times,serif" font-size="14.00">curveIdx</text>
<text text-anchor="start" x="358.5" y="-114.3" font-family="Times,serif" font-size="14.00">twinIdx</text>
<text text-anchor="start" x="358.5" y="-99.3" font-family="Times,serif" font-size="14.00">selfIdx</text>
<text text-anchor="start" x="358.5" y="-84.3" font-family="Times,serif" font-size="14.00">attributes : dict</text>
<polyline fill="none" stroke="black" points="350.5,-76.5 477.5,-76.5 "/>
<text text-anchor="start" x="358.5" y="-61.3" font-family="Times,serif" font-size="14.00">get_tvals()</text>
<text text-anchor="start" x="358.5" y="-46.3" font-family="Times,serif" font-size="14.00">__init__()</text>
</g>
<!-- 3 -->
<g id="node4" class="node"><title>3</title>
<polygon fill="none" stroke="black" points="495.5,-38.5 495.5,-197.5 630.5,-197.5 630.5,-38.5 495.5,-38.5"/>
<text text-anchor="middle" x="563" y="-182.3" font-family="Times,serif" font-size="14.00">Node</text>
<polyline fill="none" stroke="black" points="495.5,-174.5 630.5,-174.5 "/>
<text text-anchor="start" x="503.5" y="-159.3" font-family="Times,serif" font-size="14.00">selfIdx</text>
<text text-anchor="start" x="503.5" y="-144.3" font-family="Times,serif" font-size="14.00">attributes : dict</text>
<text text-anchor="start" x="503.5" y="-129.3" font-family="Times,serif" font-size="14.00">_curveIdx</text>
<text text-anchor="start" x="503.5" y="-114.3" font-family="Times,serif" font-size="14.00">point</text>
<text text-anchor="start" x="503.5" y="-99.3" font-family="Times,serif" font-size="14.00">_curveTval : list</text>
<polyline fill="none" stroke="black" points="495.5,-91.5 630.5,-91.5 "/>
<text text-anchor="start" x="503.5" y="-76.3" font-family="Times,serif" font-size="14.00">update_tval()</text>
<text text-anchor="start" x="503.5" y="-61.3" font-family="Times,serif" font-size="14.00">transform_sequence()</text>
<text text-anchor="start" x="503.5" y="-46.3" font-family="Times,serif" font-size="14.00">__init__()</text>
</g>
</g>
</svg>
