<?xml version="1.0" encoding="UTF-8" standalone="no"?>
<!DOCTYPE svg PUBLIC "-//W3C//DTD SVG 1.1//EN"
 "http://www.w3.org/Graphics/SVG/1.1/DTD/svg11.dtd">
<!-- Generated by graphviz version 2.36.0 (20140111.2315)
 -->
<!-- Title: classes_subdivision Pages: 1 -->
<svg width="1260pt" height="486pt"
 viewBox="0.00 0.00 1260.00 486.00" xmlns="http://www.w3.org/2000/svg" xmlns:xlink="http://www.w3.org/1999/xlink">
<g id="graph0" class="graph" transform="scale(1 1) rotate(0) translate(4 482)">
<title>classes_subdivision</title>
<polygon fill="white" stroke="none" points="-4,4 -4,-482 1256,-482 1256,4 -4,4"/>
<!-- 0 -->
<g id="node1" class="node"><title>0</title>
<polygon fill="none" stroke="black" points="-0.5,-30.5 -0.5,-129.5 94.5,-129.5 94.5,-30.5 -0.5,-30.5"/>
<text text-anchor="middle" x="47" y="-114.3" font-family="Times,serif" font-size="14.00">ArcModified</text>
<polyline fill="none" stroke="black" points="-0.5,-106.5 94.5,-106.5 "/>
<text text-anchor="start" x="7.5" y="-91.3" font-family="Times,serif" font-size="14.00">obj</text>
<text text-anchor="start" x="7.5" y="-76.3" font-family="Times,serif" font-size="14.00">t2 : NoneType</text>
<text text-anchor="start" x="7.5" y="-61.3" font-family="Times,serif" font-size="14.00">t1 : NoneType</text>
<polyline fill="none" stroke="black" points="-0.5,-53.5 94.5,-53.5 "/>
<text text-anchor="middle" x="47" y="-38.3" font-family="Times,serif" font-size="14.00"> </text>
</g>
<!-- 1 -->
<g id="node2" class="node"><title>1</title>
<polygon fill="none" stroke="black" points="113,-8 113,-152 233,-152 233,-8 113,-8"/>
<text text-anchor="middle" x="173" y="-136.8" font-family="Times,serif" font-size="14.00">CircleModified</text>
<polyline fill="none" stroke="black" points="113,-129 233,-129 "/>
<text text-anchor="start" x="121" y="-113.8" font-family="Times,serif" font-size="14.00">obj</text>
<polyline fill="none" stroke="black" points="113,-106 233,-106 "/>
<text text-anchor="start" x="121" y="-90.8" font-family="Times,serif" font-size="14.00">IPE()</text>
<text text-anchor="start" x="121" y="-75.8" font-family="Times,serif" font-size="14.00">firstDerivative()</text>
<text text-anchor="start" x="121" y="-60.8" font-family="Times,serif" font-size="14.00">tangentAngle()</text>
<text text-anchor="start" x="121" y="-45.8" font-family="Times,serif" font-size="14.00">DPE()</text>
<text text-anchor="start" x="121" y="-30.8" font-family="Times,serif" font-size="14.00">curvature()</text>
<text text-anchor="start" x="121" y="-15.8" font-family="Times,serif" font-size="14.00">secondDerivative()</text>
</g>
<!-- 2 -->
<g id="node3" class="node"><title>2</title>
<polygon fill="none" stroke="black" points="251,-15.5 251,-144.5 391,-144.5 391,-15.5 251,-15.5"/>
<text text-anchor="middle" x="321" y="-129.3" font-family="Times,serif" font-size="14.00">Decomposition</text>
<polyline fill="none" stroke="black" points="251,-121.5 391,-121.5 "/>
<text text-anchor="start" x="259" y="-106.3" font-family="Times,serif" font-size="14.00">graph</text>
<text text-anchor="start" x="259" y="-91.3" font-family="Times,serif" font-size="14.00">superFace : NoneType</text>
<text text-anchor="start" x="259" y="-76.3" font-family="Times,serif" font-size="14.00">faces : tuple</text>
<polyline fill="none" stroke="black" points="251,-68.5 391,-68.5 "/>
<text text-anchor="start" x="259" y="-53.3" font-family="Times,serif" font-size="14.00">find_neighbours()</text>
<text text-anchor="start" x="259" y="-38.3" font-family="Times,serif" font-size="14.00">find_face()</text>
<text text-anchor="start" x="259" y="-23.3" font-family="Times,serif" font-size="14.00">get_extents()</text>
</g>
<!-- 8 -->
<g id="node9" class="node"><title>8</title>
<polygon fill="none" stroke="black" points="231.5,-213 231.5,-477 410.5,-477 410.5,-213 231.5,-213"/>
<text text-anchor="middle" x="321" y="-461.8" font-family="Times,serif" font-size="14.00">Subdivision</text>
<polyline fill="none" stroke="black" points="231.5,-454 410.5,-454 "/>
<text text-anchor="start" x="239.5" y="-438.8" font-family="Times,serif" font-size="14.00">subDecompositions : list</text>
<text text-anchor="start" x="239.5" y="-423.8" font-family="Times,serif" font-size="14.00">MDG : MultiDiGraph</text>
<text text-anchor="start" x="239.5" y="-408.8" font-family="Times,serif" font-size="14.00">curves : list</text>
<text text-anchor="start" x="239.5" y="-393.8" font-family="Times,serif" font-size="14.00">subGraphs</text>
<text text-anchor="start" x="239.5" y="-378.8" font-family="Times,serif" font-size="14.00">decomposition</text>
<text text-anchor="start" x="239.5" y="-363.8" font-family="Times,serif" font-size="14.00">multiProcessing : int</text>
<polyline fill="none" stroke="black" points="231.5,-356 410.5,-356 "/>
<text text-anchor="start" x="239.5" y="-340.8" font-family="Times,serif" font-size="14.00">find_successor_HalfEdge()</text>
<text text-anchor="start" x="239.5" y="-325.8" font-family="Times,serif" font-size="14.00">edgeList_2_mplPath()</text>
<text text-anchor="start" x="239.5" y="-310.8" font-family="Times,serif" font-size="14.00">store_curves()</text>
<text text-anchor="start" x="239.5" y="-295.8" font-family="Times,serif" font-size="14.00">save_to_image()</text>
<text text-anchor="start" x="239.5" y="-280.8" font-family="Times,serif" font-size="14.00">decompose_graph()</text>
<text text-anchor="start" x="239.5" y="-265.8" font-family="Times,serif" font-size="14.00">update_with_new_functions()</text>
<text text-anchor="start" x="239.5" y="-250.8" font-family="Times,serif" font-size="14.00">construct_nodes()</text>
<text text-anchor="start" x="239.5" y="-235.8" font-family="Times,serif" font-size="14.00">construct_edges()</text>
<text text-anchor="start" x="239.5" y="-220.8" font-family="Times,serif" font-size="14.00">get_all_HalfEdge_indices()</text>
</g>
<!-- 2&#45;&gt;8 -->
<g id="edge1" class="edge"><title>2&#45;&gt;8</title>
<path fill="none" stroke="black" d="M321,-144.665C321,-161.787 321,-181.021 321,-200.61"/>
<polygon fill="black" stroke="black" points="321,-200.837 325,-206.837 321,-212.837 317,-206.837 321,-200.837"/>
<text text-anchor="middle" x="361.5" y="-182.3" font-family="Times,serif" font-size="14.00" fill="green">decomposition</text>
</g>
<!-- 3 -->
<g id="node4" class="node"><title>3</title>
<polygon fill="none" stroke="black" points="409.5,-8 409.5,-152 534.5,-152 534.5,-8 409.5,-8"/>
<text text-anchor="middle" x="472" y="-136.8" font-family="Times,serif" font-size="14.00">Face</text>
<polyline fill="none" stroke="black" points="409.5,-129 534.5,-129 "/>
<text text-anchor="start" x="417.5" y="-113.8" font-family="Times,serif" font-size="14.00">path</text>
<text text-anchor="start" x="417.5" y="-98.8" font-family="Times,serif" font-size="14.00">halfEdges</text>
<text text-anchor="start" x="417.5" y="-83.8" font-family="Times,serif" font-size="14.00">holes : tuple</text>
<polyline fill="none" stroke="black" points="409.5,-76 534.5,-76 "/>
<text text-anchor="start" x="417.5" y="-60.8" font-family="Times,serif" font-size="14.00">get_area()</text>
<text text-anchor="start" x="417.5" y="-45.8" font-family="Times,serif" font-size="14.00">punch_hole()</text>
<text text-anchor="start" x="417.5" y="-30.8" font-family="Times,serif" font-size="14.00">get_punched_path()</text>
<text text-anchor="start" x="417.5" y="-15.8" font-family="Times,serif" font-size="14.00">is_point_inside()</text>
</g>
<!-- 4 -->
<g id="node5" class="node"><title>4</title>
<polygon fill="none" stroke="black" points="552.5,-0.5 552.5,-159.5 679.5,-159.5 679.5,-0.5 552.5,-0.5"/>
<text text-anchor="middle" x="616" y="-144.3" font-family="Times,serif" font-size="14.00">HalfEdge</text>
<polyline fill="none" stroke="black" points="552.5,-136.5 679.5,-136.5 "/>
<text text-anchor="start" x="560.5" y="-121.3" font-family="Times,serif" font-size="14.00">twinIdx</text>
<text text-anchor="start" x="560.5" y="-106.3" font-family="Times,serif" font-size="14.00">succIdx : NoneType</text>
<text text-anchor="start" x="560.5" y="-91.3" font-family="Times,serif" font-size="14.00">eTVal</text>
<text text-anchor="start" x="560.5" y="-76.3" font-family="Times,serif" font-size="14.00">selfIdx</text>
<text text-anchor="start" x="560.5" y="-61.3" font-family="Times,serif" font-size="14.00">cIdx</text>
<text text-anchor="start" x="560.5" y="-46.3" font-family="Times,serif" font-size="14.00">side</text>
<text text-anchor="start" x="560.5" y="-31.3" font-family="Times,serif" font-size="14.00">sTVal</text>
<polyline fill="none" stroke="black" points="552.5,-23.5 679.5,-23.5 "/>
<text text-anchor="middle" x="616" y="-8.3" font-family="Times,serif" font-size="14.00"> </text>
</g>
<!-- 5 -->
<g id="node6" class="node"><title>5</title>
<polygon fill="none" stroke="black" points="698,-8 698,-152 818,-152 818,-8 698,-8"/>
<text text-anchor="middle" x="758" y="-136.8" font-family="Times,serif" font-size="14.00">LineModified</text>
<polyline fill="none" stroke="black" points="698,-129 818,-129 "/>
<text text-anchor="start" x="706" y="-113.8" font-family="Times,serif" font-size="14.00">obj</text>
<polyline fill="none" stroke="black" points="698,-106 818,-106 "/>
<text text-anchor="start" x="706" y="-90.8" font-family="Times,serif" font-size="14.00">IPE()</text>
<text text-anchor="start" x="706" y="-75.8" font-family="Times,serif" font-size="14.00">firstDerivative()</text>
<text text-anchor="start" x="706" y="-60.8" font-family="Times,serif" font-size="14.00">tangentAngle()</text>
<text text-anchor="start" x="706" y="-45.8" font-family="Times,serif" font-size="14.00">DPE()</text>
<text text-anchor="start" x="706" y="-30.8" font-family="Times,serif" font-size="14.00">curvature()</text>
<text text-anchor="start" x="706" y="-15.8" font-family="Times,serif" font-size="14.00">secondDerivative()</text>
</g>
<!-- 6 -->
<g id="node7" class="node"><title>6</title>
<polygon fill="none" stroke="black" points="836,-8 836,-152 956,-152 956,-8 836,-8"/>
<text text-anchor="middle" x="896" y="-136.8" font-family="Times,serif" font-size="14.00">RayModified</text>
<polyline fill="none" stroke="black" points="836,-129 956,-129 "/>
<text text-anchor="start" x="844" y="-113.8" font-family="Times,serif" font-size="14.00">obj</text>
<polyline fill="none" stroke="black" points="836,-106 956,-106 "/>
<text text-anchor="start" x="844" y="-90.8" font-family="Times,serif" font-size="14.00">IPE()</text>
<text text-anchor="start" x="844" y="-75.8" font-family="Times,serif" font-size="14.00">firstDerivative()</text>
<text text-anchor="start" x="844" y="-60.8" font-family="Times,serif" font-size="14.00">tangentAngle()</text>
<text text-anchor="start" x="844" y="-45.8" font-family="Times,serif" font-size="14.00">DPE()</text>
<text text-anchor="start" x="844" y="-30.8" font-family="Times,serif" font-size="14.00">curvature()</text>
<text text-anchor="start" x="844" y="-15.8" font-family="Times,serif" font-size="14.00">secondDerivative()</text>
</g>
<!-- 7 -->
<g id="node8" class="node"><title>7</title>
<polygon fill="none" stroke="black" points="974,-8 974,-152 1094,-152 1094,-8 974,-8"/>
<text text-anchor="middle" x="1034" y="-136.8" font-family="Times,serif" font-size="14.00">SegmentModified</text>
<polyline fill="none" stroke="black" points="974,-129 1094,-129 "/>
<text text-anchor="start" x="982" y="-113.8" font-family="Times,serif" font-size="14.00">obj</text>
<polyline fill="none" stroke="black" points="974,-106 1094,-106 "/>
<text text-anchor="start" x="982" y="-90.8" font-family="Times,serif" font-size="14.00">IPE()</text>
<text text-anchor="start" x="982" y="-75.8" font-family="Times,serif" font-size="14.00">firstDerivative()</text>
<text text-anchor="start" x="982" y="-60.8" font-family="Times,serif" font-size="14.00">tangentAngle()</text>
<text text-anchor="start" x="982" y="-45.8" font-family="Times,serif" font-size="14.00">DPE()</text>
<text text-anchor="start" x="982" y="-30.8" font-family="Times,serif" font-size="14.00">curvature()</text>
<text text-anchor="start" x="982" y="-15.8" font-family="Times,serif" font-size="14.00">secondDerivative()</text>
</g>
<!-- 9 -->
<g id="node10" class="node"><title>9</title>
<polygon fill="none" stroke="black" points="1112,-37.5 1112,-122.5 1252,-122.5 1252,-37.5 1112,-37.5"/>
<text text-anchor="middle" x="1182" y="-107.3" font-family="Times,serif" font-size="14.00">SubdivisionTests</text>
<polyline fill="none" stroke="black" points="1112,-99.5 1252,-99.5 "/>
<polyline fill="none" stroke="black" points="1112,-75.5 1252,-75.5 "/>
<text text-anchor="start" x="1120" y="-60.3" font-family="Times,serif" font-size="14.00">runTest()</text>
<text text-anchor="start" x="1120" y="-45.3" font-family="Times,serif" font-size="14.00">test_twinAssignment()</text>
</g>
</g>
</svg>
