<?xml version="1.0" encoding="UTF-8" standalone="no"?>
<!DOCTYPE svg PUBLIC "-//W3C//DTD SVG 1.1//EN"
 "http://www.w3.org/Graphics/SVG/1.1/DTD/svg11.dtd">
<!-- Generated by graphviz version 2.36.0 (20140111.2315)
 -->
<!-- Title: classes_subdivision Pages: 1 -->
<svg width="993pt" height="470pt"
 viewBox="0.00 0.00 993.00 470.00" xmlns="http://www.w3.org/2000/svg" xmlns:xlink="http://www.w3.org/1999/xlink">
<g id="graph0" class="graph" transform="scale(1 1) rotate(0) translate(4 466)">
<title>classes_subdivision</title>
<polygon fill="white" stroke="none" points="-4,4 -4,-466 989,-466 989,4 -4,4"/>
<!-- 0 -->
<g id="node1" class="node"><title>0</title>
<polygon fill="none" stroke="black" points="16,-30.5 16,-129.5 104,-129.5 104,-30.5 16,-30.5"/>
<text text-anchor="middle" x="60" y="-114.3" font-family="Times,serif" font-size="14.00">ArcModified</text>
<polyline fill="none" stroke="black" points="16,-106.5 104,-106.5 "/>
<text text-anchor="start" x="24" y="-91.3" font-family="Times,serif" font-size="14.00">obj</text>
<text text-anchor="start" x="24" y="-76.3" font-family="Times,serif" font-size="14.00">t2</text>
<text text-anchor="start" x="24" y="-61.3" font-family="Times,serif" font-size="14.00">t1</text>
<polyline fill="none" stroke="black" points="16,-53.5 104,-53.5 "/>
<text text-anchor="middle" x="60" y="-38.3" font-family="Times,serif" font-size="14.00"> </text>
</g>
<!-- 1 -->
<g id="node2" class="node"><title>1</title>
<polygon fill="none" stroke="black" points="0,-265 0,-409 120,-409 120,-265 0,-265"/>
<text text-anchor="middle" x="60" y="-393.8" font-family="Times,serif" font-size="14.00">CircleModified</text>
<polyline fill="none" stroke="black" points="0,-386 120,-386 "/>
<text text-anchor="start" x="8" y="-370.8" font-family="Times,serif" font-size="14.00">obj</text>
<polyline fill="none" stroke="black" points="0,-363 120,-363 "/>
<text text-anchor="start" x="8" y="-347.8" font-family="Times,serif" font-size="14.00">IPE()</text>
<text text-anchor="start" x="8" y="-332.8" font-family="Times,serif" font-size="14.00">firstDerivative()</text>
<text text-anchor="start" x="8" y="-317.8" font-family="Times,serif" font-size="14.00">tangentAngle()</text>
<text text-anchor="start" x="8" y="-302.8" font-family="Times,serif" font-size="14.00">DPE()</text>
<text text-anchor="start" x="8" y="-287.8" font-family="Times,serif" font-size="14.00">curvature()</text>
<text text-anchor="start" x="8" y="-272.8" font-family="Times,serif" font-size="14.00">secondDerivative()</text>
</g>
<!-- 0&#45;&gt;1 -->
<g id="edge1" class="edge"><title>0&#45;&gt;1</title>
<path fill="none" stroke="black" d="M60,-129.564C60,-164.94 60,-213.684 60,-254.923"/>
<polygon fill="none" stroke="black" points="56.5001,-254.959 60,-264.959 63.5001,-254.959 56.5001,-254.959"/>
</g>
<!-- 2 -->
<g id="node3" class="node"><title>2</title>
<polygon fill="none" stroke="black" points="158,-15.5 158,-144.5 298,-144.5 298,-15.5 158,-15.5"/>
<text text-anchor="middle" x="228" y="-129.3" font-family="Times,serif" font-size="14.00">Decomposition</text>
<polyline fill="none" stroke="black" points="158,-121.5 298,-121.5 "/>
<text text-anchor="start" x="166" y="-106.3" font-family="Times,serif" font-size="14.00">graph</text>
<text text-anchor="start" x="166" y="-91.3" font-family="Times,serif" font-size="14.00">superFace : NoneType</text>
<text text-anchor="start" x="166" y="-76.3" font-family="Times,serif" font-size="14.00">faces : tuple</text>
<polyline fill="none" stroke="black" points="158,-68.5 298,-68.5 "/>
<text text-anchor="start" x="166" y="-53.3" font-family="Times,serif" font-size="14.00">find_neighbours()</text>
<text text-anchor="start" x="166" y="-38.3" font-family="Times,serif" font-size="14.00">find_face()</text>
<text text-anchor="start" x="166" y="-23.3" font-family="Times,serif" font-size="14.00">get_extents()</text>
</g>
<!-- 8 -->
<g id="node9" class="node"><title>8</title>
<polygon fill="none" stroke="black" points="138.5,-212.5 138.5,-461.5 317.5,-461.5 317.5,-212.5 138.5,-212.5"/>
<text text-anchor="middle" x="228" y="-446.3" font-family="Times,serif" font-size="14.00">Subdivision</text>
<polyline fill="none" stroke="black" points="138.5,-438.5 317.5,-438.5 "/>
<text text-anchor="start" x="146.5" y="-423.3" font-family="Times,serif" font-size="14.00">subDecompositions : list</text>
<text text-anchor="start" x="146.5" y="-408.3" font-family="Times,serif" font-size="14.00">decomposition</text>
<text text-anchor="start" x="146.5" y="-393.3" font-family="Times,serif" font-size="14.00">multiProcessing : int</text>
<text text-anchor="start" x="146.5" y="-378.3" font-family="Times,serif" font-size="14.00">curves : list</text>
<text text-anchor="start" x="146.5" y="-363.3" font-family="Times,serif" font-size="14.00">MDG : MultiDiGraph</text>
<polyline fill="none" stroke="black" points="138.5,-355.5 317.5,-355.5 "/>
<text text-anchor="start" x="146.5" y="-340.3" font-family="Times,serif" font-size="14.00">find_successor_HalfEdge()</text>
<text text-anchor="start" x="146.5" y="-325.3" font-family="Times,serif" font-size="14.00">edgeList_2_mplPath()</text>
<text text-anchor="start" x="146.5" y="-310.3" font-family="Times,serif" font-size="14.00">store_curves()</text>
<text text-anchor="start" x="146.5" y="-295.3" font-family="Times,serif" font-size="14.00">save_to_image()</text>
<text text-anchor="start" x="146.5" y="-280.3" font-family="Times,serif" font-size="14.00">decompose_graph()</text>
<text text-anchor="start" x="146.5" y="-265.3" font-family="Times,serif" font-size="14.00">update_with_new_functions()</text>
<text text-anchor="start" x="146.5" y="-250.3" font-family="Times,serif" font-size="14.00">construct_nodes()</text>
<text text-anchor="start" x="146.5" y="-235.3" font-family="Times,serif" font-size="14.00">construct_edges()</text>
<text text-anchor="start" x="146.5" y="-220.3" font-family="Times,serif" font-size="14.00">get_all_HalfEdge_indices()</text>
</g>
<!-- 2&#45;&gt;8 -->
<g id="edge4" class="edge"><title>2&#45;&gt;8</title>
<path fill="none" stroke="black" d="M228,-144.689C228,-161.792 228,-180.959 228,-200.378"/>
<polygon fill="black" stroke="black" points="228,-200.486 232,-206.486 228,-212.486 224,-206.486 228,-200.486"/>
<text text-anchor="middle" x="268.5" y="-182.3" font-family="Times,serif" font-size="14.00" fill="green">decomposition</text>
</g>
<!-- 3 -->
<g id="node4" class="node"><title>3</title>
<polygon fill="none" stroke="black" points="316.5,-8 316.5,-152 441.5,-152 441.5,-8 316.5,-8"/>
<text text-anchor="middle" x="379" y="-136.8" font-family="Times,serif" font-size="14.00">Face</text>
<polyline fill="none" stroke="black" points="316.5,-129 441.5,-129 "/>
<text text-anchor="start" x="324.5" y="-113.8" font-family="Times,serif" font-size="14.00">path</text>
<text text-anchor="start" x="324.5" y="-98.8" font-family="Times,serif" font-size="14.00">halfEdges</text>
<text text-anchor="start" x="324.5" y="-83.8" font-family="Times,serif" font-size="14.00">holes : tuple</text>
<polyline fill="none" stroke="black" points="316.5,-76 441.5,-76 "/>
<text text-anchor="start" x="324.5" y="-60.8" font-family="Times,serif" font-size="14.00">get_area()</text>
<text text-anchor="start" x="324.5" y="-45.8" font-family="Times,serif" font-size="14.00">punch_hole()</text>
<text text-anchor="start" x="324.5" y="-30.8" font-family="Times,serif" font-size="14.00">get_punched_path()</text>
<text text-anchor="start" x="324.5" y="-15.8" font-family="Times,serif" font-size="14.00">is_point_inside()</text>
</g>
<!-- 4 -->
<g id="node5" class="node"><title>4</title>
<polygon fill="none" stroke="black" points="459.5,-0.5 459.5,-159.5 586.5,-159.5 586.5,-0.5 459.5,-0.5"/>
<text text-anchor="middle" x="523" y="-144.3" font-family="Times,serif" font-size="14.00">HalfEdge</text>
<polyline fill="none" stroke="black" points="459.5,-136.5 586.5,-136.5 "/>
<text text-anchor="start" x="467.5" y="-121.3" font-family="Times,serif" font-size="14.00">twinIdx</text>
<text text-anchor="start" x="467.5" y="-106.3" font-family="Times,serif" font-size="14.00">succIdx : NoneType</text>
<text text-anchor="start" x="467.5" y="-91.3" font-family="Times,serif" font-size="14.00">eTVal</text>
<text text-anchor="start" x="467.5" y="-76.3" font-family="Times,serif" font-size="14.00">selfIdx</text>
<text text-anchor="start" x="467.5" y="-61.3" font-family="Times,serif" font-size="14.00">cIdx</text>
<text text-anchor="start" x="467.5" y="-46.3" font-family="Times,serif" font-size="14.00">side</text>
<text text-anchor="start" x="467.5" y="-31.3" font-family="Times,serif" font-size="14.00">sTVal</text>
<polyline fill="none" stroke="black" points="459.5,-23.5 586.5,-23.5 "/>
<text text-anchor="middle" x="523" y="-8.3" font-family="Times,serif" font-size="14.00"> </text>
</g>
<!-- 5 -->
<g id="node6" class="node"><title>5</title>
<polygon fill="none" stroke="black" points="649,-265 649,-409 769,-409 769,-265 649,-265"/>
<text text-anchor="middle" x="709" y="-393.8" font-family="Times,serif" font-size="14.00">LineModified</text>
<polyline fill="none" stroke="black" points="649,-386 769,-386 "/>
<text text-anchor="start" x="657" y="-370.8" font-family="Times,serif" font-size="14.00">obj</text>
<polyline fill="none" stroke="black" points="649,-363 769,-363 "/>
<text text-anchor="start" x="657" y="-347.8" font-family="Times,serif" font-size="14.00">IPE()</text>
<text text-anchor="start" x="657" y="-332.8" font-family="Times,serif" font-size="14.00">firstDerivative()</text>
<text text-anchor="start" x="657" y="-317.8" font-family="Times,serif" font-size="14.00">tangentAngle()</text>
<text text-anchor="start" x="657" y="-302.8" font-family="Times,serif" font-size="14.00">DPE()</text>
<text text-anchor="start" x="657" y="-287.8" font-family="Times,serif" font-size="14.00">curvature()</text>
<text text-anchor="start" x="657" y="-272.8" font-family="Times,serif" font-size="14.00">secondDerivative()</text>
</g>
<!-- 6 -->
<g id="node7" class="node"><title>6</title>
<polygon fill="none" stroke="black" points="604.5,-38 604.5,-122 693.5,-122 693.5,-38 604.5,-38"/>
<text text-anchor="middle" x="649" y="-106.8" font-family="Times,serif" font-size="14.00">RayModified</text>
<polyline fill="none" stroke="black" points="604.5,-99 693.5,-99 "/>
<text text-anchor="start" x="612.5" y="-83.8" font-family="Times,serif" font-size="14.00">obj</text>
<polyline fill="none" stroke="black" points="604.5,-76 693.5,-76 "/>
<text text-anchor="start" x="612.5" y="-60.8" font-family="Times,serif" font-size="14.00">DPE()</text>
<text text-anchor="start" x="612.5" y="-45.8" font-family="Times,serif" font-size="14.00">IPE()</text>
</g>
<!-- 6&#45;&gt;5 -->
<g id="edge2" class="edge"><title>6&#45;&gt;5</title>
<path fill="none" stroke="black" d="M658.707,-122.254C667.125,-158.029 679.555,-210.86 689.952,-255.046"/>
<polygon fill="none" stroke="black" points="686.576,-255.98 692.273,-264.912 693.39,-254.376 686.576,-255.98"/>
</g>
<!-- 7 -->
<g id="node8" class="node"><title>7</title>
<polygon fill="none" stroke="black" points="711,-38 711,-122 827,-122 827,-38 711,-38"/>
<text text-anchor="middle" x="769" y="-106.8" font-family="Times,serif" font-size="14.00">SegmentModified</text>
<polyline fill="none" stroke="black" points="711,-99 827,-99 "/>
<text text-anchor="start" x="719" y="-83.8" font-family="Times,serif" font-size="14.00">obj</text>
<polyline fill="none" stroke="black" points="711,-76 827,-76 "/>
<text text-anchor="start" x="719" y="-60.8" font-family="Times,serif" font-size="14.00">DPE()</text>
<text text-anchor="start" x="719" y="-45.8" font-family="Times,serif" font-size="14.00">IPE()</text>
</g>
<!-- 7&#45;&gt;5 -->
<g id="edge3" class="edge"><title>7&#45;&gt;5</title>
<path fill="none" stroke="black" d="M759.293,-122.254C750.875,-158.029 738.445,-210.86 728.048,-255.046"/>
<polygon fill="none" stroke="black" points="724.61,-254.376 725.727,-264.912 731.424,-255.98 724.61,-254.376"/>
</g>
<!-- 9 -->
<g id="node10" class="node"><title>9</title>
<polygon fill="none" stroke="black" points="845,-37.5 845,-122.5 985,-122.5 985,-37.5 845,-37.5"/>
<text text-anchor="middle" x="915" y="-107.3" font-family="Times,serif" font-size="14.00">SubdivisionTests</text>
<polyline fill="none" stroke="black" points="845,-99.5 985,-99.5 "/>
<polyline fill="none" stroke="black" points="845,-75.5 985,-75.5 "/>
<text text-anchor="start" x="853" y="-60.3" font-family="Times,serif" font-size="14.00">runTest()</text>
<text text-anchor="start" x="853" y="-45.3" font-family="Times,serif" font-size="14.00">test_twinAssignment()</text>
</g>
</g>
</svg>
