<?xml version="1.0" encoding="UTF-8" standalone="no"?>
<!DOCTYPE svg PUBLIC "-//W3C//DTD SVG 1.1//EN"
 "http://www.w3.org/Graphics/SVG/1.1/DTD/svg11.dtd">
<!-- Generated by graphviz version 2.36.0 (20140111.2315)
 -->
<!-- Title: classes_subdivision Pages: 1 -->
<svg width="608pt" height="530pt"
 viewBox="0.00 0.00 608.00 530.00" xmlns="http://www.w3.org/2000/svg" xmlns:xlink="http://www.w3.org/1999/xlink">
<g id="graph0" class="graph" transform="scale(1 1) rotate(0) translate(4 526)">
<title>classes_subdivision</title>
<polygon fill="white" stroke="none" points="-4,4 -4,-526 604,-526 604,4 -4,4"/>
<!-- 0 -->
<g id="node1" class="node"><title>0</title>
<polygon fill="none" stroke="black" points="19,-0.5 19,-219.5 159,-219.5 159,-0.5 19,-0.5"/>
<text text-anchor="middle" x="89" y="-204.3" font-family="Times,serif" font-size="14.00">Decomposition</text>
<polyline fill="none" stroke="black" points="19,-196.5 159,-196.5 "/>
<text text-anchor="start" x="27" y="-181.3" font-family="Times,serif" font-size="14.00">graph</text>
<text text-anchor="start" x="27" y="-166.3" font-family="Times,serif" font-size="14.00">superFace : NoneType</text>
<text text-anchor="start" x="27" y="-151.3" font-family="Times,serif" font-size="14.00">curves</text>
<text text-anchor="start" x="27" y="-136.3" font-family="Times,serif" font-size="14.00">faces : tuple</text>
<polyline fill="none" stroke="black" points="19,-128.5 159,-128.5 "/>
<text text-anchor="start" x="27" y="-113.3" font-family="Times,serif" font-size="14.00">does_enclose()</text>
<text text-anchor="start" x="27" y="-98.3" font-family="Times,serif" font-size="14.00">find_face()</text>
<text text-anchor="start" x="27" y="-83.3" font-family="Times,serif" font-size="14.00">does_overlap()</text>
<text text-anchor="start" x="27" y="-68.3" font-family="Times,serif" font-size="14.00">merge_faces()</text>
<text text-anchor="start" x="27" y="-53.3" font-family="Times,serif" font-size="14.00">get_extents()</text>
<text text-anchor="start" x="27" y="-38.3" font-family="Times,serif" font-size="14.00">transform()</text>
<text text-anchor="start" x="27" y="-23.3" font-family="Times,serif" font-size="14.00">does_intersect()</text>
<text text-anchor="start" x="27" y="-8.3" font-family="Times,serif" font-size="14.00">find_neighbours()</text>
</g>
<!-- 4 -->
<g id="node5" class="node"><title>4</title>
<polygon fill="none" stroke="black" points="-0.5,-272.5 -0.5,-521.5 178.5,-521.5 178.5,-272.5 -0.5,-272.5"/>
<text text-anchor="middle" x="89" y="-506.3" font-family="Times,serif" font-size="14.00">Subdivision</text>
<polyline fill="none" stroke="black" points="-0.5,-498.5 178.5,-498.5 "/>
<text text-anchor="start" x="7.5" y="-483.3" font-family="Times,serif" font-size="14.00">graph : MultiDiGraph</text>
<text text-anchor="start" x="7.5" y="-468.3" font-family="Times,serif" font-size="14.00">subDecompositions : list</text>
<text text-anchor="start" x="7.5" y="-453.3" font-family="Times,serif" font-size="14.00">decomposition</text>
<text text-anchor="start" x="7.5" y="-438.3" font-family="Times,serif" font-size="14.00">multiProcessing : int</text>
<text text-anchor="start" x="7.5" y="-423.3" font-family="Times,serif" font-size="14.00">curves : list</text>
<polyline fill="none" stroke="black" points="-0.5,-415.5 178.5,-415.5 "/>
<text text-anchor="start" x="7.5" y="-400.3" font-family="Times,serif" font-size="14.00">find_successor_HalfEdge()</text>
<text text-anchor="start" x="7.5" y="-385.3" font-family="Times,serif" font-size="14.00">transform()</text>
<text text-anchor="start" x="7.5" y="-370.3" font-family="Times,serif" font-size="14.00">store_curves()</text>
<text text-anchor="start" x="7.5" y="-355.3" font-family="Times,serif" font-size="14.00">save_to_image()</text>
<text text-anchor="start" x="7.5" y="-340.3" font-family="Times,serif" font-size="14.00">decompose_graph()</text>
<text text-anchor="start" x="7.5" y="-325.3" font-family="Times,serif" font-size="14.00">update_with_new_functions()</text>
<text text-anchor="start" x="7.5" y="-310.3" font-family="Times,serif" font-size="14.00">construct_nodes()</text>
<text text-anchor="start" x="7.5" y="-295.3" font-family="Times,serif" font-size="14.00">construct_edges()</text>
<text text-anchor="start" x="7.5" y="-280.3" font-family="Times,serif" font-size="14.00">get_all_HalfEdge_indices()</text>
</g>
<!-- 0&#45;&gt;4 -->
<g id="edge1" class="edge"><title>0&#45;&gt;4</title>
<path fill="none" stroke="black" d="M89,-219.559C89,-232.943 89,-246.75 89,-260.471"/>
<polygon fill="black" stroke="black" points="89.0001,-260.494 93,-266.494 89,-272.494 85,-266.494 89.0001,-260.494"/>
<text text-anchor="middle" x="129.5" y="-242.3" font-family="Times,serif" font-size="14.00" fill="green">decomposition</text>
</g>
<!-- 1 -->
<g id="node2" class="node"><title>1</title>
<polygon fill="none" stroke="black" points="177.5,-23 177.5,-197 302.5,-197 302.5,-23 177.5,-23"/>
<text text-anchor="middle" x="240" y="-181.8" font-family="Times,serif" font-size="14.00">Face</text>
<polyline fill="none" stroke="black" points="177.5,-174 302.5,-174 "/>
<text text-anchor="start" x="185.5" y="-158.8" font-family="Times,serif" font-size="14.00">path : Path</text>
<text text-anchor="start" x="185.5" y="-143.8" font-family="Times,serif" font-size="14.00">halfEdges</text>
<text text-anchor="start" x="185.5" y="-128.8" font-family="Times,serif" font-size="14.00">holes : tuple</text>
<text text-anchor="start" x="185.5" y="-113.8" font-family="Times,serif" font-size="14.00">attributes : dict</text>
<polyline fill="none" stroke="black" points="177.5,-106 302.5,-106 "/>
<text text-anchor="start" x="185.5" y="-90.8" font-family="Times,serif" font-size="14.00">punch_hole()</text>
<text text-anchor="start" x="185.5" y="-75.8" font-family="Times,serif" font-size="14.00">is_point_inside()</text>
<text text-anchor="start" x="185.5" y="-60.8" font-family="Times,serif" font-size="14.00">get_area()</text>
<text text-anchor="start" x="185.5" y="-45.8" font-family="Times,serif" font-size="14.00">update_path()</text>
<text text-anchor="start" x="185.5" y="-30.8" font-family="Times,serif" font-size="14.00">get_punched_path()</text>
</g>
<!-- 2 -->
<g id="node3" class="node"><title>2</title>
<polygon fill="none" stroke="black" points="320.5,-38 320.5,-182 447.5,-182 447.5,-38 320.5,-38"/>
<text text-anchor="middle" x="384" y="-166.8" font-family="Times,serif" font-size="14.00">HalfEdge</text>
<polyline fill="none" stroke="black" points="320.5,-159 447.5,-159 "/>
<text text-anchor="start" x="328.5" y="-143.8" font-family="Times,serif" font-size="14.00">twinIdx</text>
<text text-anchor="start" x="328.5" y="-128.8" font-family="Times,serif" font-size="14.00">direction</text>
<text text-anchor="start" x="328.5" y="-113.8" font-family="Times,serif" font-size="14.00">succIdx : NoneType</text>
<text text-anchor="start" x="328.5" y="-98.8" font-family="Times,serif" font-size="14.00">cIdx</text>
<text text-anchor="start" x="328.5" y="-83.8" font-family="Times,serif" font-size="14.00">selfIdx</text>
<text text-anchor="start" x="328.5" y="-68.8" font-family="Times,serif" font-size="14.00">attributes : dict</text>
<polyline fill="none" stroke="black" points="320.5,-61 447.5,-61 "/>
<text text-anchor="start" x="328.5" y="-45.8" font-family="Times,serif" font-size="14.00">get_tvals()</text>
</g>
<!-- 3 -->
<g id="node4" class="node"><title>3</title>
<polygon fill="none" stroke="black" points="465.5,-38 465.5,-182 600.5,-182 600.5,-38 465.5,-38"/>
<text text-anchor="middle" x="533" y="-166.8" font-family="Times,serif" font-size="14.00">Node</text>
<polyline fill="none" stroke="black" points="465.5,-159 600.5,-159 "/>
<text text-anchor="start" x="473.5" y="-143.8" font-family="Times,serif" font-size="14.00">selfIdx</text>
<text text-anchor="start" x="473.5" y="-128.8" font-family="Times,serif" font-size="14.00">attributes : dict</text>
<text text-anchor="start" x="473.5" y="-113.8" font-family="Times,serif" font-size="14.00">curveTval</text>
<text text-anchor="start" x="473.5" y="-98.8" font-family="Times,serif" font-size="14.00">curveIdx</text>
<text text-anchor="start" x="473.5" y="-83.8" font-family="Times,serif" font-size="14.00">point</text>
<polyline fill="none" stroke="black" points="465.5,-76 600.5,-76 "/>
<text text-anchor="start" x="473.5" y="-60.8" font-family="Times,serif" font-size="14.00">update_tval()</text>
<text text-anchor="start" x="473.5" y="-45.8" font-family="Times,serif" font-size="14.00">transform_sequence()</text>
</g>
</g>
</svg>
