<?xml version="1.0" encoding="UTF-8" standalone="no"?>
<!DOCTYPE svg PUBLIC "-//W3C//DTD SVG 1.1//EN"
 "http://www.w3.org/Graphics/SVG/1.1/DTD/svg11.dtd">
<!-- Generated by graphviz version 2.36.0 (20140111.2315)
 -->
<!-- Title: classes_modifiedSympy Pages: 1 -->
<svg width="418pt" height="304pt"
 viewBox="0.00 0.00 418.00 304.00" xmlns="http://www.w3.org/2000/svg" xmlns:xlink="http://www.w3.org/1999/xlink">
<g id="graph0" class="graph" transform="scale(1 1) rotate(0) translate(4 300)">
<title>classes_modifiedSympy</title>
<polygon fill="white" stroke="none" points="-4,4 -4,-300 414,-300 414,4 -4,4"/>
<!-- 0 -->
<g id="node1" class="node"><title>0</title>
<polygon fill="none" stroke="black" points="-0.5,-0.5 -0.5,-99.5 134.5,-99.5 134.5,-0.5 -0.5,-0.5"/>
<text text-anchor="middle" x="67" y="-84.3" font-family="Times,serif" font-size="14.00">ArcModified</text>
<polyline fill="none" stroke="black" points="-0.5,-76.5 134.5,-76.5 "/>
<text text-anchor="start" x="7.5" y="-61.3" font-family="Times,serif" font-size="14.00">obj</text>
<text text-anchor="start" x="7.5" y="-46.3" font-family="Times,serif" font-size="14.00">t2</text>
<text text-anchor="start" x="7.5" y="-31.3" font-family="Times,serif" font-size="14.00">t1</text>
<polyline fill="none" stroke="black" points="-0.5,-23.5 134.5,-23.5 "/>
<text text-anchor="start" x="7.5" y="-8.3" font-family="Times,serif" font-size="14.00">transform_sequence()</text>
</g>
<!-- 1 -->
<g id="node2" class="node"><title>1</title>
<polygon fill="none" stroke="black" points="-0.5,-136.5 -0.5,-295.5 134.5,-295.5 134.5,-136.5 -0.5,-136.5"/>
<text text-anchor="middle" x="67" y="-280.3" font-family="Times,serif" font-size="14.00">CircleModified</text>
<polyline fill="none" stroke="black" points="-0.5,-272.5 134.5,-272.5 "/>
<text text-anchor="start" x="7.5" y="-257.3" font-family="Times,serif" font-size="14.00">obj</text>
<polyline fill="none" stroke="black" points="-0.5,-249.5 134.5,-249.5 "/>
<text text-anchor="start" x="7.5" y="-234.3" font-family="Times,serif" font-size="14.00">IPE()</text>
<text text-anchor="start" x="7.5" y="-219.3" font-family="Times,serif" font-size="14.00">firstDerivative()</text>
<text text-anchor="start" x="7.5" y="-204.3" font-family="Times,serif" font-size="14.00">tangentAngle()</text>
<text text-anchor="start" x="7.5" y="-189.3" font-family="Times,serif" font-size="14.00">DPE()</text>
<text text-anchor="start" x="7.5" y="-174.3" font-family="Times,serif" font-size="14.00">curvature()</text>
<text text-anchor="start" x="7.5" y="-159.3" font-family="Times,serif" font-size="14.00">secondDerivative()</text>
<text text-anchor="start" x="7.5" y="-144.3" font-family="Times,serif" font-size="14.00">transform_sequence()</text>
</g>
<!-- 0&#45;&gt;1 -->
<g id="edge1" class="edge"><title>0&#45;&gt;1</title>
<path fill="none" stroke="black" d="M67,-99.7614C67,-108.131 67,-117.056 67,-126.094"/>
<polygon fill="none" stroke="black" points="63.5001,-126.323 67,-136.323 70.5001,-126.323 63.5001,-126.323"/>
</g>
<!-- 2 -->
<g id="node3" class="node"><title>2</title>
<polygon fill="none" stroke="black" points="200.5,-136.5 200.5,-295.5 335.5,-295.5 335.5,-136.5 200.5,-136.5"/>
<text text-anchor="middle" x="268" y="-280.3" font-family="Times,serif" font-size="14.00">LineModified</text>
<polyline fill="none" stroke="black" points="200.5,-272.5 335.5,-272.5 "/>
<text text-anchor="start" x="208.5" y="-257.3" font-family="Times,serif" font-size="14.00">obj</text>
<polyline fill="none" stroke="black" points="200.5,-249.5 335.5,-249.5 "/>
<text text-anchor="start" x="208.5" y="-234.3" font-family="Times,serif" font-size="14.00">IPE()</text>
<text text-anchor="start" x="208.5" y="-219.3" font-family="Times,serif" font-size="14.00">firstDerivative()</text>
<text text-anchor="start" x="208.5" y="-204.3" font-family="Times,serif" font-size="14.00">tangentAngle()</text>
<text text-anchor="start" x="208.5" y="-189.3" font-family="Times,serif" font-size="14.00">DPE()</text>
<text text-anchor="start" x="208.5" y="-174.3" font-family="Times,serif" font-size="14.00">curvature()</text>
<text text-anchor="start" x="208.5" y="-159.3" font-family="Times,serif" font-size="14.00">secondDerivative()</text>
<text text-anchor="start" x="208.5" y="-144.3" font-family="Times,serif" font-size="14.00">transform_sequence()</text>
</g>
<!-- 3 -->
<g id="node4" class="node"><title>3</title>
<polygon fill="none" stroke="black" points="187.5,-8 187.5,-92 276.5,-92 276.5,-8 187.5,-8"/>
<text text-anchor="middle" x="232" y="-76.8" font-family="Times,serif" font-size="14.00">RayModified</text>
<polyline fill="none" stroke="black" points="187.5,-69 276.5,-69 "/>
<text text-anchor="start" x="195.5" y="-53.8" font-family="Times,serif" font-size="14.00">obj</text>
<polyline fill="none" stroke="black" points="187.5,-46 276.5,-46 "/>
<text text-anchor="start" x="195.5" y="-30.8" font-family="Times,serif" font-size="14.00">DPE()</text>
<text text-anchor="start" x="195.5" y="-15.8" font-family="Times,serif" font-size="14.00">IPE()</text>
</g>
<!-- 3&#45;&gt;2 -->
<g id="edge2" class="edge"><title>3&#45;&gt;2</title>
<path fill="none" stroke="black" d="M241.084,-92.3841C243.379,-102.837 245.932,-114.468 248.526,-126.286"/>
<polygon fill="none" stroke="black" points="245.147,-127.218 250.71,-136.235 251.985,-125.717 245.147,-127.218"/>
</g>
<!-- 4 -->
<g id="node5" class="node"><title>4</title>
<polygon fill="none" stroke="black" points="294,-8 294,-92 410,-92 410,-8 294,-8"/>
<text text-anchor="middle" x="352" y="-76.8" font-family="Times,serif" font-size="14.00">SegmentModified</text>
<polyline fill="none" stroke="black" points="294,-69 410,-69 "/>
<text text-anchor="start" x="302" y="-53.8" font-family="Times,serif" font-size="14.00">obj</text>
<polyline fill="none" stroke="black" points="294,-46 410,-46 "/>
<text text-anchor="start" x="302" y="-30.8" font-family="Times,serif" font-size="14.00">DPE()</text>
<text text-anchor="start" x="302" y="-15.8" font-family="Times,serif" font-size="14.00">IPE()</text>
</g>
<!-- 4&#45;&gt;2 -->
<g id="edge3" class="edge"><title>4&#45;&gt;2</title>
<path fill="none" stroke="black" d="M330.803,-92.3841C325.342,-103.046 319.254,-114.933 313.076,-126.995"/>
<polygon fill="none" stroke="black" points="309.787,-125.739 308.343,-136.235 316.017,-128.93 309.787,-125.739"/>
</g>
</g>
</svg>
