<?xml version="1.0" encoding="UTF-8" standalone="no"?>
<!DOCTYPE svg PUBLIC "-//W3C//DTD SVG 1.1//EN"
 "http://www.w3.org/Graphics/SVG/1.1/DTD/svg11.dtd">
<!-- Generated by graphviz version 2.36.0 (20140111.2315)
 -->
<!-- Title: classes_subdivision Pages: 1 -->
<svg width="455pt" height="516pt"
 viewBox="0.00 0.00 455.00 516.00" xmlns="http://www.w3.org/2000/svg" xmlns:xlink="http://www.w3.org/1999/xlink">
<g id="graph0" class="graph" transform="scale(1 1) rotate(0) translate(4 512)">
<title>classes_subdivision</title>
<polygon fill="white" stroke="none" points="-4,4 -4,-512 451,-512 451,4 -4,4"/>
<!-- 0 -->
<g id="node1" class="node"><title>0</title>
<polygon fill="none" stroke="black" points="19,-1 19,-205 159,-205 159,-1 19,-1"/>
<text text-anchor="middle" x="89" y="-189.8" font-family="Times,serif" font-size="14.00">Decomposition</text>
<polyline fill="none" stroke="black" points="19,-182 159,-182 "/>
<text text-anchor="start" x="27" y="-166.8" font-family="Times,serif" font-size="14.00">graph</text>
<text text-anchor="start" x="27" y="-151.8" font-family="Times,serif" font-size="14.00">superFace : NoneType</text>
<text text-anchor="start" x="27" y="-136.8" font-family="Times,serif" font-size="14.00">curves</text>
<text text-anchor="start" x="27" y="-121.8" font-family="Times,serif" font-size="14.00">faces : tuple</text>
<polyline fill="none" stroke="black" points="19,-114 159,-114 "/>
<text text-anchor="start" x="27" y="-98.8" font-family="Times,serif" font-size="14.00">does_enclose()</text>
<text text-anchor="start" x="27" y="-83.8" font-family="Times,serif" font-size="14.00">find_face()</text>
<text text-anchor="start" x="27" y="-68.8" font-family="Times,serif" font-size="14.00">does_overlap()</text>
<text text-anchor="start" x="27" y="-53.8" font-family="Times,serif" font-size="14.00">merge_faces()</text>
<text text-anchor="start" x="27" y="-38.8" font-family="Times,serif" font-size="14.00">get_extents()</text>
<text text-anchor="start" x="27" y="-23.8" font-family="Times,serif" font-size="14.00">does_intersect()</text>
<text text-anchor="start" x="27" y="-8.8" font-family="Times,serif" font-size="14.00">find_neighbours()</text>
</g>
<!-- 3 -->
<g id="node4" class="node"><title>3</title>
<polygon fill="none" stroke="black" points="-0.5,-258.5 -0.5,-507.5 178.5,-507.5 178.5,-258.5 -0.5,-258.5"/>
<text text-anchor="middle" x="89" y="-492.3" font-family="Times,serif" font-size="14.00">Subdivision</text>
<polyline fill="none" stroke="black" points="-0.5,-484.5 178.5,-484.5 "/>
<text text-anchor="start" x="7.5" y="-469.3" font-family="Times,serif" font-size="14.00">graph : MultiDiGraph</text>
<text text-anchor="start" x="7.5" y="-454.3" font-family="Times,serif" font-size="14.00">subDecompositions : list</text>
<text text-anchor="start" x="7.5" y="-439.3" font-family="Times,serif" font-size="14.00">decomposition</text>
<text text-anchor="start" x="7.5" y="-424.3" font-family="Times,serif" font-size="14.00">multiProcessing : int</text>
<text text-anchor="start" x="7.5" y="-409.3" font-family="Times,serif" font-size="14.00">curves : list</text>
<polyline fill="none" stroke="black" points="-0.5,-401.5 178.5,-401.5 "/>
<text text-anchor="start" x="7.5" y="-386.3" font-family="Times,serif" font-size="14.00">find_successor_HalfEdge()</text>
<text text-anchor="start" x="7.5" y="-371.3" font-family="Times,serif" font-size="14.00">transform()</text>
<text text-anchor="start" x="7.5" y="-356.3" font-family="Times,serif" font-size="14.00">store_curves()</text>
<text text-anchor="start" x="7.5" y="-341.3" font-family="Times,serif" font-size="14.00">save_to_image()</text>
<text text-anchor="start" x="7.5" y="-326.3" font-family="Times,serif" font-size="14.00">decompose_graph()</text>
<text text-anchor="start" x="7.5" y="-311.3" font-family="Times,serif" font-size="14.00">update_with_new_functions()</text>
<text text-anchor="start" x="7.5" y="-296.3" font-family="Times,serif" font-size="14.00">construct_nodes()</text>
<text text-anchor="start" x="7.5" y="-281.3" font-family="Times,serif" font-size="14.00">construct_edges()</text>
<text text-anchor="start" x="7.5" y="-266.3" font-family="Times,serif" font-size="14.00">get_all_HalfEdge_indices()</text>
</g>
<!-- 0&#45;&gt;3 -->
<g id="edge1" class="edge"><title>0&#45;&gt;3</title>
<path fill="none" stroke="black" d="M89,-205.151C89,-218.479 89,-232.31 89,-246.1"/>
<polygon fill="black" stroke="black" points="89.0001,-246.195 93,-252.195 89,-258.195 85,-252.195 89.0001,-246.195"/>
<text text-anchor="middle" x="129.5" y="-228.3" font-family="Times,serif" font-size="14.00" fill="green">decomposition</text>
</g>
<!-- 1 -->
<g id="node2" class="node"><title>1</title>
<polygon fill="none" stroke="black" points="177.5,-23.5 177.5,-182.5 302.5,-182.5 302.5,-23.5 177.5,-23.5"/>
<text text-anchor="middle" x="240" y="-167.3" font-family="Times,serif" font-size="14.00">Face</text>
<polyline fill="none" stroke="black" points="177.5,-159.5 302.5,-159.5 "/>
<text text-anchor="start" x="185.5" y="-144.3" font-family="Times,serif" font-size="14.00">path</text>
<text text-anchor="start" x="185.5" y="-129.3" font-family="Times,serif" font-size="14.00">halfEdges</text>
<text text-anchor="start" x="185.5" y="-114.3" font-family="Times,serif" font-size="14.00">holes : tuple</text>
<text text-anchor="start" x="185.5" y="-99.3" font-family="Times,serif" font-size="14.00">attributes : dict</text>
<polyline fill="none" stroke="black" points="177.5,-91.5 302.5,-91.5 "/>
<text text-anchor="start" x="185.5" y="-76.3" font-family="Times,serif" font-size="14.00">get_area()</text>
<text text-anchor="start" x="185.5" y="-61.3" font-family="Times,serif" font-size="14.00">punch_hole()</text>
<text text-anchor="start" x="185.5" y="-46.3" font-family="Times,serif" font-size="14.00">get_punched_path()</text>
<text text-anchor="start" x="185.5" y="-31.3" font-family="Times,serif" font-size="14.00">is_point_inside()</text>
</g>
<!-- 2 -->
<g id="node3" class="node"><title>2</title>
<polygon fill="none" stroke="black" points="320.5,-16 320.5,-190 447.5,-190 447.5,-16 320.5,-16"/>
<text text-anchor="middle" x="384" y="-174.8" font-family="Times,serif" font-size="14.00">HalfEdge</text>
<polyline fill="none" stroke="black" points="320.5,-167 447.5,-167 "/>
<text text-anchor="start" x="328.5" y="-151.8" font-family="Times,serif" font-size="14.00">twinIdx</text>
<text text-anchor="start" x="328.5" y="-136.8" font-family="Times,serif" font-size="14.00">direction</text>
<text text-anchor="start" x="328.5" y="-121.8" font-family="Times,serif" font-size="14.00">succIdx : NoneType</text>
<text text-anchor="start" x="328.5" y="-106.8" font-family="Times,serif" font-size="14.00">eTVal</text>
<text text-anchor="start" x="328.5" y="-91.8" font-family="Times,serif" font-size="14.00">attributes : dict</text>
<text text-anchor="start" x="328.5" y="-76.8" font-family="Times,serif" font-size="14.00">selfIdx</text>
<text text-anchor="start" x="328.5" y="-61.8" font-family="Times,serif" font-size="14.00">cIdx</text>
<text text-anchor="start" x="328.5" y="-46.8" font-family="Times,serif" font-size="14.00">sTVal</text>
<polyline fill="none" stroke="black" points="320.5,-39 447.5,-39 "/>
<text text-anchor="middle" x="384" y="-23.8" font-family="Times,serif" font-size="14.00"> </text>
</g>
</g>
</svg>
