<?xml version="1.0" encoding="UTF-8" standalone="no"?>
<!DOCTYPE svg PUBLIC "-//W3C//DTD SVG 1.1//EN"
 "http://www.w3.org/Graphics/SVG/1.1/DTD/svg11.dtd">
<!-- Generated by graphviz version 2.36.0 (20140111.2315)
 -->
<!-- Title: classes_subdivision Pages: 1 -->
<svg width="455pt" height="470pt"
 viewBox="0.00 0.00 455.00 470.00" xmlns="http://www.w3.org/2000/svg" xmlns:xlink="http://www.w3.org/1999/xlink">
<g id="graph0" class="graph" transform="scale(1 1) rotate(0) translate(4 466)">
<title>classes_subdivision</title>
<polygon fill="white" stroke="none" points="-4,4 -4,-466 451,-466 451,4 -4,4"/>
<!-- 0 -->
<g id="node1" class="node"><title>0</title>
<polygon fill="none" stroke="black" points="19,-15.5 19,-144.5 159,-144.5 159,-15.5 19,-15.5"/>
<text text-anchor="middle" x="89" y="-129.3" font-family="Times,serif" font-size="14.00">Decomposition</text>
<polyline fill="none" stroke="black" points="19,-121.5 159,-121.5 "/>
<text text-anchor="start" x="27" y="-106.3" font-family="Times,serif" font-size="14.00">graph</text>
<text text-anchor="start" x="27" y="-91.3" font-family="Times,serif" font-size="14.00">superFace : NoneType</text>
<text text-anchor="start" x="27" y="-76.3" font-family="Times,serif" font-size="14.00">faces : tuple</text>
<polyline fill="none" stroke="black" points="19,-68.5 159,-68.5 "/>
<text text-anchor="start" x="27" y="-53.3" font-family="Times,serif" font-size="14.00">find_neighbours()</text>
<text text-anchor="start" x="27" y="-38.3" font-family="Times,serif" font-size="14.00">find_face()</text>
<text text-anchor="start" x="27" y="-23.3" font-family="Times,serif" font-size="14.00">get_extents()</text>
</g>
<!-- 3 -->
<g id="node4" class="node"><title>3</title>
<polygon fill="none" stroke="black" points="-0.5,-212.5 -0.5,-461.5 178.5,-461.5 178.5,-212.5 -0.5,-212.5"/>
<text text-anchor="middle" x="89" y="-446.3" font-family="Times,serif" font-size="14.00">Subdivision</text>
<polyline fill="none" stroke="black" points="-0.5,-438.5 178.5,-438.5 "/>
<text text-anchor="start" x="7.5" y="-423.3" font-family="Times,serif" font-size="14.00">subDecompositions : list</text>
<text text-anchor="start" x="7.5" y="-408.3" font-family="Times,serif" font-size="14.00">decomposition</text>
<text text-anchor="start" x="7.5" y="-393.3" font-family="Times,serif" font-size="14.00">multiProcessing : int</text>
<text text-anchor="start" x="7.5" y="-378.3" font-family="Times,serif" font-size="14.00">curves : list</text>
<text text-anchor="start" x="7.5" y="-363.3" font-family="Times,serif" font-size="14.00">MDG : MultiDiGraph</text>
<polyline fill="none" stroke="black" points="-0.5,-355.5 178.5,-355.5 "/>
<text text-anchor="start" x="7.5" y="-340.3" font-family="Times,serif" font-size="14.00">find_successor_HalfEdge()</text>
<text text-anchor="start" x="7.5" y="-325.3" font-family="Times,serif" font-size="14.00">edgeList_2_mplPath()</text>
<text text-anchor="start" x="7.5" y="-310.3" font-family="Times,serif" font-size="14.00">store_curves()</text>
<text text-anchor="start" x="7.5" y="-295.3" font-family="Times,serif" font-size="14.00">save_to_image()</text>
<text text-anchor="start" x="7.5" y="-280.3" font-family="Times,serif" font-size="14.00">decompose_graph()</text>
<text text-anchor="start" x="7.5" y="-265.3" font-family="Times,serif" font-size="14.00">update_with_new_functions()</text>
<text text-anchor="start" x="7.5" y="-250.3" font-family="Times,serif" font-size="14.00">construct_nodes()</text>
<text text-anchor="start" x="7.5" y="-235.3" font-family="Times,serif" font-size="14.00">construct_edges()</text>
<text text-anchor="start" x="7.5" y="-220.3" font-family="Times,serif" font-size="14.00">get_all_HalfEdge_indices()</text>
</g>
<!-- 0&#45;&gt;3 -->
<g id="edge1" class="edge"><title>0&#45;&gt;3</title>
<path fill="none" stroke="black" d="M89,-144.689C89,-161.792 89,-180.959 89,-200.378"/>
<polygon fill="black" stroke="black" points="89.0001,-200.486 93,-206.486 89,-212.486 85,-206.486 89.0001,-200.486"/>
<text text-anchor="middle" x="129.5" y="-182.3" font-family="Times,serif" font-size="14.00" fill="green">decomposition</text>
</g>
<!-- 1 -->
<g id="node2" class="node"><title>1</title>
<polygon fill="none" stroke="black" points="177.5,-8 177.5,-152 302.5,-152 302.5,-8 177.5,-8"/>
<text text-anchor="middle" x="240" y="-136.8" font-family="Times,serif" font-size="14.00">Face</text>
<polyline fill="none" stroke="black" points="177.5,-129 302.5,-129 "/>
<text text-anchor="start" x="185.5" y="-113.8" font-family="Times,serif" font-size="14.00">path</text>
<text text-anchor="start" x="185.5" y="-98.8" font-family="Times,serif" font-size="14.00">halfEdges</text>
<text text-anchor="start" x="185.5" y="-83.8" font-family="Times,serif" font-size="14.00">holes : tuple</text>
<polyline fill="none" stroke="black" points="177.5,-76 302.5,-76 "/>
<text text-anchor="start" x="185.5" y="-60.8" font-family="Times,serif" font-size="14.00">get_area()</text>
<text text-anchor="start" x="185.5" y="-45.8" font-family="Times,serif" font-size="14.00">punch_hole()</text>
<text text-anchor="start" x="185.5" y="-30.8" font-family="Times,serif" font-size="14.00">get_punched_path()</text>
<text text-anchor="start" x="185.5" y="-15.8" font-family="Times,serif" font-size="14.00">is_point_inside()</text>
</g>
<!-- 2 -->
<g id="node3" class="node"><title>2</title>
<polygon fill="none" stroke="black" points="320.5,-0.5 320.5,-159.5 447.5,-159.5 447.5,-0.5 320.5,-0.5"/>
<text text-anchor="middle" x="384" y="-144.3" font-family="Times,serif" font-size="14.00">HalfEdge</text>
<polyline fill="none" stroke="black" points="320.5,-136.5 447.5,-136.5 "/>
<text text-anchor="start" x="328.5" y="-121.3" font-family="Times,serif" font-size="14.00">twinIdx</text>
<text text-anchor="start" x="328.5" y="-106.3" font-family="Times,serif" font-size="14.00">direction</text>
<text text-anchor="start" x="328.5" y="-91.3" font-family="Times,serif" font-size="14.00">succIdx : NoneType</text>
<text text-anchor="start" x="328.5" y="-76.3" font-family="Times,serif" font-size="14.00">eTVal</text>
<text text-anchor="start" x="328.5" y="-61.3" font-family="Times,serif" font-size="14.00">selfIdx</text>
<text text-anchor="start" x="328.5" y="-46.3" font-family="Times,serif" font-size="14.00">cIdx</text>
<text text-anchor="start" x="328.5" y="-31.3" font-family="Times,serif" font-size="14.00">sTVal</text>
<polyline fill="none" stroke="black" points="320.5,-23.5 447.5,-23.5 "/>
<text text-anchor="middle" x="384" y="-8.3" font-family="Times,serif" font-size="14.00"> </text>
</g>
</g>
</svg>
