<?xml version="1.0" encoding="utf-8"?>
<!DOCTYPE svg PUBLIC "-//W3C//DTD SVG 1.1//EN" "http://www.w3.org/Graphics/SVG/1.1/DTD/svg11.dtd">
<svg version="1.1"
	 xmlns="http://www.w3.org/2000/svg" xmlns:xlink="http://www.w3.org/1999/xlink"
	 x="0px" y="0px" width="306px" height="138px" viewBox="0 0 306 138" enable-background="new 0 0 306 138" xml:space="preserve">
<defs>
</defs>
<rect fill="#D2E3FF" width="306" height="138"/>
<polygon fill="#FFC5D3" stroke="#70009F" points="54,48 84,84 108,54 144,36 156,84 108,108 168,126 222,108 204,60 276,90 294,48 
	270,18 192,24 108,6 "/>
<line fill="none" stroke="#9F0011" stroke-width="2" x1="218.25" y1="66" x2="270" y2="66"/>
<line fill="none" stroke="#0042DF" stroke-width="2" x1="206.25" y1="66" x2="218.25" y2="66"/>
<line fill="none" stroke="#9F0011" stroke-width="2" x1="151.375" y1="66" x2="206.25" y2="66"/>
<line fill="none" stroke="#0042DF" stroke-width="2" x1="98.375" y1="66" x2="151.375" y2="66"/>
<line fill="none" stroke="#9F0011" stroke-width="2" x1="68.875" y1="66" x2="98.375" y2="66"/>
<line fill="none" stroke="#0042DF" stroke-width="2" x1="0" y1="66" x2="68.875" y2="66"/>
<line fill="none" stroke="#70009F" stroke-width="2" x1="66" y1="66" x2="66.072" y2="66"/>
<path fill="#70009F" d="M72.107,66c-2.84,1.054-6.363,2.852-8.547,4.755L65.28,66l-1.72-4.755
	C65.744,63.148,69.268,64.947,72.107,66z"/>
<line fill="none" stroke="#70009F" stroke-width="2" x1="96" y1="66" x2="96.072" y2="66"/>
<path fill="#70009F" d="M102.107,66c-2.84,1.054-6.363,2.852-8.547,4.755L95.28,66l-1.72-4.755
	C95.744,63.148,99.268,64.947,102.107,66z"/>
<line fill="none" stroke="#70009F" stroke-width="2" x1="148" y1="66" x2="148.072" y2="66"/>
<path fill="#70009F" d="M154.107,66c-2.84,1.054-6.363,2.852-8.547,4.755L147.28,66l-1.72-4.755
	C147.744,63.148,151.268,64.947,154.107,66z"/>
<line fill="none" stroke="#70009F" stroke-width="2" x1="203" y1="66" x2="203.072" y2="66"/>
<path fill="#70009F" d="M209.107,66c-2.84,1.054-6.363,2.852-8.547,4.755L202.28,66l-1.72-4.755
	C202.744,63.148,206.268,64.947,209.107,66z"/>
<line fill="none" stroke="#70009F" stroke-width="2" x1="217" y1="66" x2="217.072" y2="66"/>
<path fill="#70009F" d="M223.107,66c-2.84,1.054-6.363,2.852-8.547,4.755L216.28,66l-1.72-4.755
	C216.744,63.148,220.268,64.947,223.107,66z"/>
<line fill="none" stroke="#9F0011" stroke-width="2" x1="270" y1="66" x2="270.072" y2="66"/>
<path fill="#9F0011" d="M276.107,66c-2.84,1.054-6.363,2.852-8.547,4.755L269.28,66l-1.72-4.755
	C269.744,63.148,273.268,64.947,276.107,66z"/>
<text transform="matrix(1 0 0 1 16.3652 89.9502)" fill="#0042DF" font-family="DejaVu Sans" font-size="24">0</text>
<text transform="matrix(1 0 0 1 78.5103 60.2002)" fill="#9F0011" font-family="DejaVu Sans" font-size="16">1</text>
<text transform="matrix(1 0 0 1 121.7603 83.8496)" fill="#0042DF" font-family="DejaVu Sans" font-size="16">2</text>
<text transform="matrix(1 0 0 1 175.0098 60)" fill="#9F0011" font-family="DejaVu Sans" font-size="16">3</text>
<text transform="matrix(1 0 0 1 216.9102 84)" fill="#0042DF" font-family="DejaVu Sans" font-size="16">4</text>
<text transform="matrix(1 0 0 1 247.2598 60.1001)" fill="#9F0011" font-family="DejaVu Sans" font-size="16">5</text>
</svg>
