<?xml version="1.0" encoding="UTF-8" standalone="no"?>
<!-- Created with Inkscape (http://www.inkscape.org/) -->

<svg
   xmlns:dc="http://purl.org/dc/elements/1.1/"
   xmlns:cc="http://creativecommons.org/ns#"
   xmlns:rdf="http://www.w3.org/1999/02/22-rdf-syntax-ns#"
   xmlns:svg="http://www.w3.org/2000/svg"
   xmlns="http://www.w3.org/2000/svg"
   xmlns:sodipodi="http://sodipodi.sourceforge.net/DTD/sodipodi-0.dtd"
   xmlns:inkscape="http://www.inkscape.org/namespaces/inkscape"
   width="49.380322mm"
   height="32.446987mm"
   viewBox="0 0 174.96964 114.96964"
   id="svg2"
   version="1.1"
   inkscape:version="0.91 r"
   sodipodi:docname="pres_collision.svg"
   inkscape:export-filename="/home/saesha/Dropbox/myGits/dev/subdivision/documentation/figures/subd_restrictedFail_b.png"
   inkscape:export-xdpi="299.81827"
   inkscape:export-ydpi="299.81827">
  <defs
     id="defs4">
    <marker
       inkscape:isstock="true"
       style="overflow:visible"
       id="marker5923"
       refX="0"
       refY="0"
       orient="auto"
       inkscape:stockid="Arrow1Sstart">
      <path
         inkscape:connector-curvature="0"
         transform="matrix(0.2,0,0,0.2,1.2,0)"
         style="fill:#106ec7;fill-opacity:1;fill-rule:evenodd;stroke:#106ec7;stroke-width:1pt;stroke-opacity:1"
         d="M 0,0 5,-5 -12.5,0 5,5 0,0 Z"
         id="path5925" />
    </marker>
    <marker
       inkscape:isstock="true"
       style="overflow:visible"
       id="marker6153"
       refX="0"
       refY="0"
       orient="auto"
       inkscape:stockid="Arrow1Sstart">
      <path
         inkscape:connector-curvature="0"
         transform="matrix(0.2,0,0,0.2,1.2,0)"
         style="fill:#c7106e;fill-opacity:1;fill-rule:evenodd;stroke:#c7106e;stroke-width:1pt;stroke-opacity:1"
         d="M 0,0 5,-5 -12.5,0 5,5 0,0 Z"
         id="path6155" />
    </marker>
    <marker
       inkscape:stockid="Arrow1Send"
       orient="auto"
       refY="0"
       refX="0"
       id="marker5705"
       style="overflow:visible"
       inkscape:isstock="true">
      <path
         inkscape:connector-curvature="0"
         id="path5707"
         d="M 0,0 5,-5 -12.5,0 5,5 0,0 Z"
         style="fill:#106ec7;fill-opacity:1;fill-rule:evenodd;stroke:#106ec7;stroke-width:1pt;stroke-opacity:1"
         transform="matrix(-0.2,0,0,-0.2,-1.2,0)" />
    </marker>
    <marker
       inkscape:stockid="Arrow1Send"
       orient="auto"
       refY="0"
       refX="0"
       id="marker5611"
       style="overflow:visible"
       inkscape:isstock="true">
      <path
         inkscape:connector-curvature="0"
         id="path5613"
         d="M 0,0 5,-5 -12.5,0 5,5 0,0 Z"
         style="fill:#c7106e;fill-opacity:1;fill-rule:evenodd;stroke:#c7106e;stroke-width:1pt;stroke-opacity:1"
         transform="matrix(-0.2,0,0,-0.2,-1.2,0)" />
    </marker>
    <marker
       inkscape:stockid="Arrow1Sstart"
       orient="auto"
       refY="0"
       refX="0"
       id="marker5095"
       style="overflow:visible"
       inkscape:isstock="true">
      <path
         inkscape:connector-curvature="0"
         id="path5097"
         d="M 0,0 5,-5 -12.5,0 5,5 0,0 Z"
         style="fill:#c7106e;fill-opacity:1;fill-rule:evenodd;stroke:#c7106e;stroke-width:1pt;stroke-opacity:1"
         transform="matrix(0.2,0,0,0.2,1.2,0)" />
    </marker>
    <marker
       inkscape:isstock="true"
       style="overflow:visible"
       id="marker4643"
       refX="0"
       refY="0"
       orient="auto"
       inkscape:stockid="Arrow1Send">
      <path
         inkscape:connector-curvature="0"
         transform="matrix(-0.2,0,0,-0.2,-1.2,0)"
         style="fill:#106ec7;fill-opacity:1;fill-rule:evenodd;stroke:#106ec7;stroke-width:1pt;stroke-opacity:1"
         d="M 0,0 5,-5 -12.5,0 5,5 0,0 Z"
         id="path4645" />
    </marker>
  </defs>
  <sodipodi:namedview
     id="base"
     pagecolor="#ffffff"
     bordercolor="#666666"
     borderopacity="1.0"
     inkscape:pageopacity="0.0"
     inkscape:pageshadow="2"
     inkscape:zoom="5.6"
     inkscape:cx="110.58569"
     inkscape:cy="46.979028"
     inkscape:document-units="px"
     inkscape:current-layer="layer1"
     showgrid="false"
     inkscape:window-width="1863"
     inkscape:window-height="1176"
     inkscape:window-x="57"
     inkscape:window-y="24"
     inkscape:window-maximized="1"
     fit-margin-top="0"
     fit-margin-left="0"
     fit-margin-right="0"
     fit-margin-bottom="0" />
  <metadata
     id="metadata7">
    <rdf:RDF>
      <cc:Work
         rdf:about="">
        <dc:format>image/svg+xml</dc:format>
        <dc:type
           rdf:resource="http://purl.org/dc/dcmitype/StillImage" />
        <dc:title />
      </cc:Work>
    </rdf:RDF>
  </metadata>
  <g
     inkscape:label="Layer 1"
     inkscape:groupmode="layer"
     id="layer1"
     transform="translate(-388.98816,-423.89867)">
    <g
       id="g5305"
       transform="translate(-0.0427373,-0.83623)"
       style="stroke:#000000">
      <rect
         transform="matrix(0,-1,1,0,0,0)"
         rx="0"
         y="416.17603"
         x="-460.29355"
         height="24.122377"
         width="9.9340935"
         id="rect2996-3-0-1"
         style="fill:none;stroke:#000000;stroke-width:0.63627326;stroke-opacity:1" />
      <rect
         transform="matrix(0,-1,1,0,0,0)"
         rx="0"
         y="440.29395"
         x="-460.29257"
         height="24.122377"
         width="9.9340935"
         id="rect2996-3-8-49-79"
         style="fill:none;stroke:#000000;stroke-width:0.63627326;stroke-opacity:1" />
      <rect
         transform="matrix(0,-1,1,0,0,0)"
         rx="0"
         y="464.41373"
         x="-460.29449"
         height="24.122377"
         width="9.9340935"
         id="rect2996-3-7-4-3"
         style="fill:none;stroke:#000000;stroke-width:0.63627326;stroke-opacity:1" />
      <rect
         transform="matrix(0,-1,1,0,0,0)"
         rx="0"
         y="488.53165"
         x="-460.29352"
         height="24.122377"
         width="9.9340935"
         id="rect2996-3-8-4-8-7"
         style="fill:none;stroke:#000000;stroke-width:0.63627326;stroke-opacity:1" />
      <g
         transform="translate(0,-2)"
         id="g5298"
         style="stroke:#000000">
        <rect
           style="fill:none;stroke:#000000;stroke-width:0.63627326;stroke-opacity:1"
           id="rect2996-7-8"
           width="9.9340935"
           height="24.122377"
           x="-472.03882"
           y="416.17758"
           rx="0"
           transform="matrix(0,-1,1,0,0,0)" />
        <rect
           style="fill:none;stroke:#000000;stroke-width:0.63627326;stroke-opacity:1"
           id="rect2996-6-1-42"
           width="9.9340935"
           height="24.122377"
           x="-472.03784"
           y="440.2955"
           rx="0"
           transform="matrix(0,-1,1,0,0,0)" />
        <rect
           style="fill:none;stroke:#000000;stroke-width:0.63627326;stroke-opacity:1"
           id="rect2996-36-9-86"
           width="9.9340935"
           height="24.122377"
           x="-472.03976"
           y="464.41525"
           rx="0"
           transform="matrix(0,-1,1,0,0,0)" />
        <rect
           style="fill:none;stroke:#000000;stroke-width:0.63627326;stroke-opacity:1"
           id="rect2996-6-6-5-5"
           width="9.9340935"
           height="24.122377"
           x="-472.03879"
           y="488.53317"
           rx="0"
           transform="matrix(0,-1,1,0,0,0)" />
        <rect
           style="fill:none;stroke:#000000;stroke-width:0.63627326;stroke-opacity:1"
           id="rect2996-9-6-03"
           width="9.9340935"
           height="24.122377"
           x="-472.03784"
           y="512.64752"
           rx="0"
           transform="matrix(0,-1,1,0,0,0)" />
      </g>
      <rect
         transform="matrix(0,-1,1,0,0,0)"
         rx="0"
         y="512.64594"
         x="-460.29257"
         height="24.122377"
         width="9.9340935"
         id="rect2996-3-6-2-8"
         style="fill:none;stroke:#000000;stroke-width:0.63627326;stroke-opacity:1" />
    </g>
    <g
       transform="translate(-0.0427373,43.16377)"
       id="g5419"
       style="stroke:#000000">
      <rect
         style="fill:none;stroke:#000000;stroke-width:0.63627326;stroke-opacity:1"
         id="rect5421"
         width="9.9340935"
         height="24.122377"
         x="-460.29355"
         y="416.17603"
         rx="0"
         transform="matrix(0,-1,1,0,0,0)" />
      <rect
         style="fill:none;stroke:#000000;stroke-width:0.63627326;stroke-opacity:1"
         id="rect5423"
         width="9.9340935"
         height="24.122377"
         x="-460.29257"
         y="440.29395"
         rx="0"
         transform="matrix(0,-1,1,0,0,0)" />
      <rect
         style="fill:none;stroke:#000000;stroke-width:0.63627326;stroke-opacity:1"
         id="rect5425"
         width="9.9340935"
         height="24.122377"
         x="-460.29449"
         y="464.41373"
         rx="0"
         transform="matrix(0,-1,1,0,0,0)" />
      <rect
         style="fill:none;stroke:#000000;stroke-width:0.63627326;stroke-opacity:1"
         id="rect5427"
         width="9.9340935"
         height="24.122377"
         x="-460.29352"
         y="488.53165"
         rx="0"
         transform="matrix(0,-1,1,0,0,0)" />
      <g
         id="g5429"
         transform="translate(0,-2)"
         style="stroke:#000000">
        <rect
           transform="matrix(0,-1,1,0,0,0)"
           rx="0"
           y="416.17758"
           x="-472.03882"
           height="24.122377"
           width="9.9340935"
           id="rect5431"
           style="fill:none;stroke:#000000;stroke-width:0.63627326;stroke-opacity:1" />
        <rect
           transform="matrix(0,-1,1,0,0,0)"
           rx="0"
           y="440.2955"
           x="-472.03784"
           height="24.122377"
           width="9.9340935"
           id="rect5433"
           style="fill:none;stroke:#000000;stroke-width:0.63627326;stroke-opacity:1" />
        <rect
           transform="matrix(0,-1,1,0,0,0)"
           rx="0"
           y="464.41525"
           x="-472.03976"
           height="24.122377"
           width="9.9340935"
           id="rect5435"
           style="fill:none;stroke:#000000;stroke-width:0.63627326;stroke-opacity:1" />
        <rect
           transform="matrix(0,-1,1,0,0,0)"
           rx="0"
           y="488.53317"
           x="-472.03879"
           height="24.122377"
           width="9.9340935"
           id="rect5437"
           style="fill:none;stroke:#000000;stroke-width:0.63627326;stroke-opacity:1" />
        <rect
           transform="matrix(0,-1,1,0,0,0)"
           rx="0"
           y="512.64752"
           x="-472.03784"
           height="24.122377"
           width="9.9340935"
           id="rect5439"
           style="fill:none;stroke:#000000;stroke-width:0.63627326;stroke-opacity:1" />
      </g>
      <rect
         style="fill:none;stroke:#000000;stroke-width:0.63627326;stroke-opacity:1"
         id="rect5441"
         width="9.9340935"
         height="24.122377"
         x="-460.29257"
         y="512.64594"
         rx="0"
         transform="matrix(0,-1,1,0,0,0)" />
    </g>
    <circle
       style="opacity:1;fill:none;fill-opacity:1;stroke:#008000;stroke-width:1;stroke-linecap:round;stroke-linejoin:round;stroke-miterlimit:4;stroke-dasharray:none;stroke-dashoffset:0;stroke-opacity:1"
       id="path6249"
       cx="430.23816"
       cy="479.40402"
       r="6.7857146" />
    <circle
       r="6.7857146"
       cy="515.40405"
       cx="536.23816"
       id="circle6251"
       style="opacity:1;fill:none;fill-opacity:1;stroke:#c50000;stroke-width:1;stroke-linecap:round;stroke-linejoin:round;stroke-miterlimit:4;stroke-dasharray:none;stroke-dashoffset:0;stroke-opacity:1" />
  </g>
</svg>
