<?xml version="1.0" encoding="UTF-8" standalone="no"?>
<!-- Created with Inkscape (http://www.inkscape.org/) -->

<svg
   xmlns:dc="http://purl.org/dc/elements/1.1/"
   xmlns:cc="http://creativecommons.org/ns#"
   xmlns:rdf="http://www.w3.org/1999/02/22-rdf-syntax-ns#"
   xmlns:svg="http://www.w3.org/2000/svg"
   xmlns="http://www.w3.org/2000/svg"
   xmlns:xlink="http://www.w3.org/1999/xlink"
   xmlns:sodipodi="http://sodipodi.sourceforge.net/DTD/sodipodi-0.dtd"
   xmlns:inkscape="http://www.inkscape.org/namespaces/inkscape"
   width="479.6265"
   height="124.38377"
   viewBox="0 0 479.62649 124.38376"
   id="svg2"
   version="1.1"
   inkscape:version="0.91 r"
   sodipodi:docname="subd_heConstruct _.svg"
   inkscape:export-filename="/home/saesha/Dropbox/myGits/dev/subdivision/documentation/figures/subd_heConstruct_.png"
   inkscape:export-xdpi="300"
   inkscape:export-ydpi="300">
  <sodipodi:namedview
     id="base"
     pagecolor="#ffffff"
     bordercolor="#666666"
     borderopacity="1.0"
     inkscape:pageopacity="0.0"
     inkscape:pageshadow="2"
     inkscape:zoom="2"
     inkscape:cx="213.17575"
     inkscape:cy="11.109645"
     inkscape:document-units="px"
     inkscape:current-layer="layer1"
     showgrid="false"
     inkscape:window-width="1863"
     inkscape:window-height="1176"
     inkscape:window-x="57"
     inkscape:window-y="24"
     inkscape:window-maximized="1"
     fit-margin-top="0"
     fit-margin-left="0"
     fit-margin-right="0"
     fit-margin-bottom="0"
     units="px" />
  <defs
     id="defs4">
    <marker
       inkscape:stockid="Arrow1Sstart"
       orient="auto"
       refY="0"
       refX="0"
       id="marker8641"
       style="overflow:visible"
       inkscape:isstock="true">
      <path
         inkscape:connector-curvature="0"
         id="path8643"
         d="M 0,0 5,-5 -12.5,0 5,5 0,0 Z"
         style="fill:#000000;fill-opacity:0.62352941;fill-rule:evenodd;stroke:#000000;stroke-width:1pt;stroke-opacity:0.62352941"
         transform="matrix(0.2,0,0,0.2,1.2,0)" />
    </marker>
    <marker
       inkscape:isstock="true"
       style="overflow:visible"
       id="marker8471"
       refX="0"
       refY="0"
       orient="auto"
       inkscape:stockid="Arrow1Sstart"
       inkscape:collect="always">
      <path
         transform="matrix(0.2,0,0,0.2,1.2,0)"
         style="fill:none;fill-opacity:0.62352941;fill-rule:evenodd;stroke:none;stroke-width:1pt;stroke-opacity:0.62352941"
         d="M 0,0 5,-5 -12.5,0 5,5 0,0 Z"
         id="path8473"
         inkscape:connector-curvature="0" />
    </marker>
    <marker
       inkscape:stockid="Arrow1Send"
       orient="auto"
       refY="0"
       refX="0"
       id="marker7015"
       style="overflow:visible"
       inkscape:isstock="true">
      <path
         inkscape:connector-curvature="0"
         id="path7017"
         d="M 0,0 5,-5 -12.5,0 5,5 0,0 Z"
         style="fill:#000000;fill-opacity:0.62352941;fill-rule:evenodd;stroke:#000000;stroke-width:1pt;stroke-opacity:0.62352941"
         transform="matrix(-0.2,0,0,-0.2,-1.2,0)" />
    </marker>
    <marker
       inkscape:stockid="Arrow1Sstart"
       orient="auto"
       refY="0"
       refX="0"
       id="marker6268"
       style="overflow:visible"
       inkscape:isstock="true"
       inkscape:collect="always">
      <path
         inkscape:connector-curvature="0"
         id="path6270"
         d="M 0,0 5,-5 -12.5,0 5,5 0,0 Z"
         style="fill:#000000;fill-opacity:0.62352941;fill-rule:evenodd;stroke:#000000;stroke-width:1pt;stroke-opacity:0.62352941"
         transform="matrix(0.2,0,0,0.2,1.2,0)" />
    </marker>
    <marker
       inkscape:isstock="true"
       style="overflow:visible"
       id="marker6004"
       refX="0"
       refY="0"
       orient="auto"
       inkscape:stockid="Arrow1Send">
      <path
         inkscape:connector-curvature="0"
         transform="matrix(-0.2,0,0,-0.2,-1.2,0)"
         style="fill:#000000;fill-opacity:0.62311557;fill-rule:evenodd;stroke:#000000;stroke-width:1pt;stroke-opacity:0.62311557"
         d="M 0,0 5,-5 -12.5,0 5,5 0,0 Z"
         id="path6006" />
    </marker>
    <marker
       inkscape:stockid="Arrow1Send"
       orient="auto"
       refY="0"
       refX="0"
       id="marker5752"
       style="overflow:visible"
       inkscape:isstock="true">
      <path
         inkscape:connector-curvature="0"
         id="path5754"
         d="M 0,0 5,-5 -12.5,0 5,5 0,0 Z"
         style="fill:#c7106e;fill-opacity:1;fill-rule:evenodd;stroke:#c7106e;stroke-width:1pt;stroke-opacity:1"
         transform="matrix(-0.2,0,0,-0.2,-1.2,0)" />
    </marker>
    <marker
       inkscape:stockid="Arrow1Send"
       orient="auto"
       refY="0"
       refX="0"
       id="marker5604"
       style="overflow:visible"
       inkscape:isstock="true">
      <path
         inkscape:connector-curvature="0"
         id="path5606"
         d="M 0,0 5,-5 -12.5,0 5,5 0,0 Z"
         style="fill:#6ec60f;fill-opacity:1;fill-rule:evenodd;stroke:#6ec60f;stroke-width:1pt;stroke-opacity:1"
         transform="matrix(-0.2,0,0,-0.2,-1.2,0)" />
    </marker>
    <marker
       inkscape:collect="always"
       inkscape:isstock="true"
       style="overflow:visible"
       id="marker5457"
       refX="0"
       refY="0"
       orient="auto"
       inkscape:stockid="Arrow1Send">
      <path
         inkscape:connector-curvature="0"
         transform="matrix(-0.2,0,0,-0.2,-1.2,0)"
         style="fill:#106ec7;fill-opacity:1;fill-rule:evenodd;stroke:#106ec7;stroke-width:1pt;stroke-opacity:1"
         d="M 0,0 5,-5 -12.5,0 5,5 0,0 Z"
         id="path4565" />
    </marker>
    <marker
       inkscape:stockid="Arrow1Sstart"
       orient="auto"
       refY="0"
       refX="0"
       id="marker5315"
       style="overflow:visible"
       inkscape:isstock="true">
      <path
         inkscape:connector-curvature="0"
         id="path5317"
         d="M 0,0 5,-5 -12.5,0 5,5 0,0 Z"
         style="fill:#c7106e;fill-opacity:1;fill-rule:evenodd;stroke:#c7106e;stroke-width:1pt;stroke-opacity:1"
         transform="matrix(0.2,0,0,0.2,1.2,0)" />
    </marker>
    <marker
       inkscape:stockid="Arrow1Sstart"
       orient="auto"
       refY="0"
       refX="0"
       id="marker5305"
       style="overflow:visible"
       inkscape:isstock="true">
      <path
         inkscape:connector-curvature="0"
         id="path5307"
         d="M 0,0 5,-5 -12.5,0 5,5 0,0 Z"
         style="fill:#6ec60f;fill-opacity:1;fill-rule:evenodd;stroke:#6ec60f;stroke-width:1pt;stroke-opacity:1"
         transform="matrix(0.2,0,0,0.2,1.2,0)" />
    </marker>
    <marker
       inkscape:collect="always"
       inkscape:isstock="true"
       style="overflow:visible"
       id="marker5170"
       refX="0"
       refY="0"
       orient="auto"
       inkscape:stockid="Arrow1Sstart">
      <path
         inkscape:connector-curvature="0"
         transform="matrix(0.2,0,0,0.2,1.2,0)"
         style="fill:#106ec7;fill-opacity:1;fill-rule:evenodd;stroke:#106ec7;stroke-width:1pt;stroke-opacity:1"
         d="M 0,0 5,-5 -12.5,0 5,5 0,0 Z"
         id="path4562" />
    </marker>
    <linearGradient
       id="linearGradient4458"
       inkscape:collect="always">
      <stop
         id="stop4460"
         offset="0"
         style="stop-color:#000000;stop-opacity:1;" />
      <stop
         id="stop4462"
         offset="1"
         style="stop-color:#000000;stop-opacity:0;" />
    </linearGradient>
    <marker
       inkscape:isstock="true"
       style="overflow:visible"
       id="marker5629"
       refX="0"
       refY="0"
       orient="auto"
       inkscape:stockid="Arrow1Sstart">
      <path
         inkscape:connector-curvature="0"
         transform="matrix(0.2,0,0,0.2,1.2,0)"
         style="fill:#e59327;fill-opacity:1;fill-rule:evenodd;stroke:#e59327;stroke-width:1pt;stroke-opacity:1"
         d="M 0,0 5,-5 -12.5,0 5,5 0,0 Z"
         id="path5631" />
    </marker>
    <marker
       inkscape:collect="always"
       inkscape:isstock="true"
       style="overflow:visible"
       id="marker5529"
       refX="0"
       refY="0"
       orient="auto"
       inkscape:stockid="Arrow1Sstart">
      <path
         inkscape:connector-curvature="0"
         transform="matrix(0.2,0,0,0.2,1.2,0)"
         style="fill:#6ec60f;fill-opacity:1;fill-rule:evenodd;stroke:#6ec60f;stroke-width:1pt;stroke-opacity:1"
         d="M 0,0 5,-5 -12.5,0 5,5 0,0 Z"
         id="path5531" />
    </marker>
    <marker
       inkscape:isstock="true"
       style="overflow:visible"
       id="marker5435"
       refX="0"
       refY="0"
       orient="auto"
       inkscape:stockid="Arrow1Sstart">
      <path
         inkscape:connector-curvature="0"
         transform="matrix(0.2,0,0,0.2,1.2,0)"
         style="fill:#106ec7;fill-opacity:1;fill-rule:evenodd;stroke:#106ec7;stroke-width:1pt;stroke-opacity:1"
         d="M 0,0 5,-5 -12.5,0 5,5 0,0 Z"
         id="path5437" />
    </marker>
    <marker
       inkscape:isstock="true"
       style="overflow:visible"
       id="marker5347"
       refX="0"
       refY="0"
       orient="auto"
       inkscape:stockid="Arrow1Sstart">
      <path
         inkscape:connector-curvature="0"
         transform="matrix(0.2,0,0,0.2,1.2,0)"
         style="fill:#c7106e;fill-opacity:1;fill-rule:evenodd;stroke:#c7106e;stroke-width:1pt;stroke-opacity:1"
         d="M 0,0 5,-5 -12.5,0 5,5 0,0 Z"
         id="path5349" />
    </marker>
    <marker
       inkscape:stockid="Arrow1Send"
       orient="auto"
       refY="0"
       refX="0"
       id="marker5253"
       style="overflow:visible"
       inkscape:isstock="true">
      <path
         inkscape:connector-curvature="0"
         id="path5255"
         d="M 0,0 5,-5 -12.5,0 5,5 0,0 Z"
         style="fill:#6ec60f;fill-opacity:1;fill-rule:evenodd;stroke:#6ec60f;stroke-width:1pt;stroke-opacity:1"
         transform="matrix(-0.2,0,0,-0.2,-1.2,0)" />
    </marker>
    <marker
       inkscape:stockid="Arrow1Send"
       orient="auto"
       refY="0"
       refX="0"
       id="marker5177"
       style="overflow:visible"
       inkscape:isstock="true">
      <path
         inkscape:connector-curvature="0"
         id="path5179"
         d="M 0,0 5,-5 -12.5,0 5,5 0,0 Z"
         style="fill:#106ec7;fill-opacity:1;fill-rule:evenodd;stroke:#106ec7;stroke-width:1pt;stroke-opacity:1"
         transform="matrix(-0.2,0,0,-0.2,-1.2,0)" />
    </marker>
    <marker
       inkscape:stockid="Arrow1Send"
       orient="auto"
       refY="0"
       refX="0"
       id="marker5107"
       style="overflow:visible"
       inkscape:isstock="true">
      <path
         inkscape:connector-curvature="0"
         id="path5109"
         d="M 0,0 5,-5 -12.5,0 5,5 0,0 Z"
         style="fill:#c7106e;fill-opacity:1;fill-rule:evenodd;stroke:#c7106e;stroke-width:1pt;stroke-opacity:1"
         transform="matrix(-0.2,0,0,-0.2,-1.2,0)" />
    </marker>
    <marker
       inkscape:stockid="Arrow1Send"
       orient="auto"
       refY="0"
       refX="0"
       id="marker5043"
       style="overflow:visible"
       inkscape:isstock="true">
      <path
         inkscape:connector-curvature="0"
         id="path5045"
         d="M 0,0 5,-5 -12.5,0 5,5 0,0 Z"
         style="fill:#e59327;fill-opacity:1;fill-rule:evenodd;stroke:#e59327;stroke-width:1pt;stroke-opacity:1"
         transform="matrix(-0.2,0,0,-0.2,-1.2,0)" />
    </marker>
    <marker
       inkscape:collect="always"
       inkscape:stockid="Arrow1Sstart"
       orient="auto"
       refY="0"
       refX="0"
       id="marker4868"
       style="overflow:visible"
       inkscape:isstock="true">
      <path
         inkscape:connector-curvature="0"
         id="path4870"
         d="M 0,0 5,-5 -12.5,0 5,5 0,0 Z"
         style="fill:#c7106e;fill-opacity:1;fill-rule:evenodd;stroke:#c7106e;stroke-width:1pt;stroke-opacity:1"
         transform="matrix(0.2,0,0,0.2,1.2,0)" />
    </marker>
    <marker
       inkscape:stockid="Arrow1Sstart"
       orient="auto"
       refY="0"
       refX="0"
       id="marker4816"
       style="overflow:visible"
       inkscape:isstock="true">
      <path
         inkscape:connector-curvature="0"
         id="path4818"
         d="M 0,0 5,-5 -12.5,0 5,5 0,0 Z"
         style="fill:#6ec60f;fill-opacity:1;fill-rule:evenodd;stroke:#6ec60f;stroke-width:1pt;stroke-opacity:1"
         transform="matrix(0.2,0,0,0.2,1.2,0)" />
    </marker>
    <marker
       inkscape:collect="always"
       inkscape:isstock="true"
       style="overflow:visible"
       id="Arrow1Sstart"
       refX="0"
       refY="0"
       orient="auto"
       inkscape:stockid="Arrow1Sstart">
      <path
         inkscape:connector-curvature="0"
         transform="matrix(0.2,0,0,0.2,1.2,0)"
         style="fill:#106ec7;fill-opacity:1;fill-rule:evenodd;stroke:#106ec7;stroke-width:1pt;stroke-opacity:1"
         d="M 0,0 5,-5 -12.5,0 5,5 0,0 Z"
         id="path4310" />
    </marker>
    <marker
       inkscape:collect="always"
       inkscape:stockid="Arrow1Send"
       orient="auto"
       refY="0"
       refX="0"
       id="marker4678"
       style="overflow:visible"
       inkscape:isstock="true">
      <path
         inkscape:connector-curvature="0"
         id="path4680"
         d="M 0,0 5,-5 -12.5,0 5,5 0,0 Z"
         style="fill:#6ec60f;fill-opacity:1;fill-rule:evenodd;stroke:#6ec60f;stroke-width:1pt;stroke-opacity:1"
         transform="matrix(-0.2,0,0,-0.2,-1.2,0)" />
    </marker>
    <marker
       inkscape:stockid="Arrow1Send"
       orient="auto"
       refY="0"
       refX="0"
       id="marker4668"
       style="overflow:visible"
       inkscape:isstock="true">
      <path
         inkscape:connector-curvature="0"
         id="path4670"
         d="M 0,0 5,-5 -12.5,0 5,5 0,0 Z"
         style="fill:#c7106e;fill-opacity:1;fill-rule:evenodd;stroke:#c7106e;stroke-width:1pt;stroke-opacity:1"
         transform="matrix(-0.2,0,0,-0.2,-1.2,0)" />
    </marker>
    <marker
       inkscape:collect="always"
       inkscape:isstock="true"
       style="overflow:visible"
       id="Arrow1Send"
       refX="0"
       refY="0"
       orient="auto"
       inkscape:stockid="Arrow1Send">
      <path
         inkscape:connector-curvature="0"
         transform="matrix(-0.2,0,0,-0.2,-1.2,0)"
         style="fill:#106ec7;fill-opacity:1;fill-rule:evenodd;stroke:#106ec7;stroke-width:1pt;stroke-opacity:1"
         d="M 0,0 5,-5 -12.5,0 5,5 0,0 Z"
         id="path4313" />
    </marker>
    <linearGradient
       id="linearGradient4155"
       inkscape:collect="always">
      <stop
         id="stop4157"
         offset="0"
         style="stop-color:#000000;stop-opacity:1;" />
      <stop
         id="stop4159"
         offset="1"
         style="stop-color:#000000;stop-opacity:0;" />
    </linearGradient>
    <linearGradient
       id="linearGradient4147"
       inkscape:collect="always">
      <stop
         id="stop4149"
         offset="0"
         style="stop-color:#000000;stop-opacity:1;" />
      <stop
         id="stop4151"
         offset="1"
         style="stop-color:#000000;stop-opacity:0;" />
    </linearGradient>
    <linearGradient
       gradientTransform="matrix(0.99064725,0.13644789,-0.13644789,0.99064725,58.521481,-41.521048)"
       gradientUnits="userSpaceOnUse"
       y2="260.39194"
       x2="405.68799"
       y1="260.39194"
       x1="373.05936"
       id="linearGradient4153"
       xlink:href="#linearGradient4147"
       inkscape:collect="always" />
    <linearGradient
       gradientTransform="matrix(-0.99064725,-0.13644789,0.13644789,-0.99064725,476.58108,776.75938)"
       gradientUnits="userSpaceOnUse"
       y2="376.79196"
       x2="279.21542"
       y1="376.79196"
       x1="246.58679"
       id="linearGradient4161"
       xlink:href="#linearGradient4155"
       inkscape:collect="always" />
    <linearGradient
       gradientUnits="userSpaceOnUse"
       y2="380.74692"
       x2="583.92096"
       y1="365.8093"
       x1="595.66766"
       id="linearGradient4464"
       xlink:href="#linearGradient4458"
       inkscape:collect="always" />
    <linearGradient
       gradientUnits="userSpaceOnUse"
       y2="257.66577"
       x2="728.49506"
       y1="284.88937"
       x1="720.10785"
       id="linearGradient4472"
       xlink:href="#linearGradient4458"
       inkscape:collect="always" />
  </defs>
  <metadata
     id="metadata7">
    <rdf:RDF>
      <cc:Work
         rdf:about="">
        <dc:format>image/svg+xml</dc:format>
        <dc:type
           rdf:resource="http://purl.org/dc/dcmitype/StillImage" />
        <dc:title />
      </cc:Work>
    </rdf:RDF>
  </metadata>
  <g
     transform="translate(-249.39889,-256.80386)"
     id="layer1"
     inkscape:groupmode="layer"
     inkscape:label="Layer 1">
    <path
       sodipodi:nodetypes="cc"
       style="fill:none;fill-rule:evenodd;stroke:#000000;stroke-width:1px;stroke-linecap:round;stroke-linejoin:miter;stroke-opacity:1"
       d="m 320.49087,330.84876 35.29306,-24.51361"
       id="path4142"
       inkscape:connector-curvature="0" />
    <path
       inkscape:connector-curvature="0"
       id="path4138"
       d="m 285.19781,355.36237 -35.29306,24.5136"
       style="fill:none;fill-rule:evenodd;stroke:url(#linearGradient4161);stroke-width:1px;stroke-linecap:round;stroke-linejoin:miter;stroke-opacity:1"
       sodipodi:nodetypes="cc" />
    <path
       sodipodi:nodetypes="cc"
       style="fill:none;fill-rule:evenodd;stroke:#000000;stroke-width:1px;stroke-linecap:round;stroke-linejoin:miter;stroke-opacity:1"
       d="m 285.19781,355.36237 35.29306,-24.51361"
       id="path4140"
       inkscape:connector-curvature="0" />
    <path
       inkscape:connector-curvature="0"
       id="path4143"
       d="m 355.78393,306.33515 35.29305,-24.51361"
       style="fill:none;fill-rule:evenodd;stroke:#000000;stroke-width:1px;stroke-linecap:round;stroke-linejoin:miter;stroke-opacity:1"
       sodipodi:nodetypes="cc" />
    <path
       sodipodi:nodetypes="cc"
       style="fill:none;fill-rule:evenodd;stroke:url(#linearGradient4153);stroke-width:1px;stroke-linecap:round;stroke-linejoin:miter;stroke-opacity:1"
       d="m 391.07698,281.82154 35.29306,-24.5136"
       id="path4145"
       inkscape:connector-curvature="0" />
    <circle
       transform="matrix(0.99064725,0.13644789,-0.13644789,0.99064725,0,0)"
       r="2"
       cy="225.85463"
       cx="425.70541"
       id="path4138-3"
       style="opacity:1;fill:#ff0000;fill-opacity:1;stroke:none;stroke-width:0.72260422;stroke-linecap:round;stroke-linejoin:round;stroke-miterlimit:4;stroke-dasharray:none;stroke-dashoffset:0;stroke-opacity:1" />
    <circle
       transform="matrix(0.99064725,0.13644789,-0.13644789,0.99064725,0,0)"
       style="opacity:1;fill:#ff0000;fill-opacity:1;stroke:none;stroke-width:0.72260422;stroke-linecap:round;stroke-linejoin:round;stroke-miterlimit:4;stroke-dasharray:none;stroke-dashoffset:0;stroke-opacity:1"
       id="circle4169"
       cx="394.29709"
       cy="254.81758"
       r="2" />
    <circle
       transform="matrix(0.99064725,0.13644789,-0.13644789,0.99064725,0,0)"
       r="2"
       cy="283.78052"
       cx="362.88882"
       id="path4138-7"
       style="opacity:1;fill:#ff0000;fill-opacity:1;stroke:none;stroke-width:0.72260422;stroke-linecap:round;stroke-linejoin:round;stroke-miterlimit:4;stroke-dasharray:none;stroke-dashoffset:0;stroke-opacity:1" />
    <circle
       transform="matrix(0.99064725,0.13644789,-0.13644789,0.99064725,0,0)"
       r="2"
       cy="312.74347"
       cx="331.48053"
       id="path4138-5"
       style="opacity:1;fill:#ff0000;fill-opacity:1;stroke:none;stroke-width:0.72260422;stroke-linecap:round;stroke-linejoin:round;stroke-miterlimit:4;stroke-dasharray:none;stroke-dashoffset:0;stroke-opacity:1" />
    <path
       inkscape:connector-curvature="0"
       id="path4282"
       d="m 321.91297,322.97617 25.99838,-18.06312"
       style="fill:none;fill-rule:evenodd;stroke:#106ec7;stroke-width:1px;stroke-linecap:round;stroke-linejoin:miter;stroke-opacity:1;marker-end:url(#Arrow1Send)"
       sodipodi:nodetypes="cc" />
    <path
       inkscape:connector-curvature="0"
       id="path4284"
       d="m 286.61991,347.48978 25.99837,-18.06312"
       style="fill:none;fill-rule:evenodd;stroke:#6ec60f;stroke-width:1px;stroke-linecap:round;stroke-linejoin:miter;stroke-opacity:1;marker-end:url(#marker4678)"
       sodipodi:nodetypes="cc" />
    <path
       sodipodi:nodetypes="cc"
       style="fill:none;fill-rule:evenodd;stroke:#c7106e;stroke-width:1px;stroke-linecap:round;stroke-linejoin:miter;stroke-opacity:1;marker-end:url(#marker4668)"
       d="M 357.20603,298.46256 383.2044,280.39944"
       id="path4286"
       inkscape:connector-curvature="0" />
    <path
       sodipodi:nodetypes="cc"
       style="fill:none;fill-rule:evenodd;stroke:#106ec7;stroke-width:1px;stroke-linecap:round;stroke-linejoin:miter;stroke-opacity:1;marker-start:url(#Arrow1Sstart)"
       d="m 328.36346,332.27086 25.99837,-18.06313"
       id="path4288"
       inkscape:connector-curvature="0" />
    <path
       sodipodi:nodetypes="cc"
       style="fill:none;fill-rule:evenodd;stroke:#6ec60f;stroke-width:1px;stroke-linecap:round;stroke-linejoin:miter;stroke-opacity:1;marker-start:url(#marker4816)"
       d="m 293.07039,356.78447 25.99838,-18.06312"
       id="path4290"
       inkscape:connector-curvature="0" />
    <path
       inkscape:connector-curvature="0"
       id="path4292"
       d="m 363.65652,307.75725 25.99836,-18.06312"
       style="fill:none;fill-rule:evenodd;stroke:#c7106e;stroke-width:1px;stroke-linecap:round;stroke-linejoin:miter;stroke-opacity:1;marker-start:url(#marker4868)"
       sodipodi:nodetypes="cc" />
    <circle
       r="40.25"
       cy="319.43057"
       cx="495.34369"
       id="path4195"
       style="opacity:1;fill:none;fill-opacity:1;stroke:#000000;stroke-width:1;stroke-linecap:round;stroke-linejoin:round;stroke-miterlimit:4;stroke-dasharray:none;stroke-dashoffset:0;stroke-opacity:1" />
    <circle
       transform="matrix(0.98912665,0.14706623,-0.14706623,0.98912665,0,0)"
       r="2"
       cy="206.77388"
       cx="553.81549"
       id="path4138-3-1"
       style="opacity:1;fill:#ff0000;fill-opacity:1;stroke:none;stroke-width:0.72260422;stroke-linecap:round;stroke-linejoin:round;stroke-miterlimit:4;stroke-dasharray:none;stroke-dashoffset:0;stroke-opacity:1" />
    <circle
       transform="matrix(0.98912665,0.14706623,-0.14706623,0.98912665,0,0)"
       style="opacity:1;fill:#ff0000;fill-opacity:1;stroke:none;stroke-width:0.72260422;stroke-linecap:round;stroke-linejoin:round;stroke-miterlimit:4;stroke-dasharray:none;stroke-dashoffset:0;stroke-opacity:1"
       id="circle4169-2"
       cx="500.0311"
       cy="227.1846"
       r="2" />
    <circle
       transform="matrix(0.98912665,0.14706623,-0.14706623,0.98912665,0,0)"
       r="2"
       cy="277.12991"
       cx="515.34161"
       id="path4138-7-7"
       style="opacity:1;fill:#ff0000;fill-opacity:1;stroke:none;stroke-width:0.72260422;stroke-linecap:round;stroke-linejoin:round;stroke-miterlimit:4;stroke-dasharray:none;stroke-dashoffset:0;stroke-opacity:1" />
    <circle
       transform="matrix(0.98912665,0.14706623,-0.14706623,0.98912665,0,0)"
       r="2"
       cy="244.20049"
       cx="577.2204"
       id="path4138-5-0"
       style="opacity:1;fill:#ff0000;fill-opacity:1;stroke:none;stroke-width:0.72260422;stroke-linecap:round;stroke-linejoin:round;stroke-miterlimit:4;stroke-dasharray:none;stroke-dashoffset:0;stroke-opacity:1" />
    <path
       d="m 522.02599,284.44408 a 44,44 0 0 1 17.11157,39.24056"
       sodipodi:open="true"
       sodipodi:end="0.096834523"
       sodipodi:start="5.3639345"
       sodipodi:ry="44"
       sodipodi:rx="44"
       sodipodi:cy="319.43057"
       sodipodi:cx="495.34369"
       sodipodi:type="arc"
       style="opacity:1;fill:none;fill-opacity:1;stroke:#6ec60f;stroke-width:1;stroke-linecap:round;stroke-linejoin:round;stroke-miterlimit:4;stroke-dasharray:none;stroke-dashoffset:0;stroke-opacity:1;marker-end:url(#marker5253)"
       id="circle5011" />
    <path
       d="m 537.82806,330.87952 a 44,44 0 0 1 -27.85136,30.04654 44,44 0 0 1 -40.53804,-5.92964"
       sodipodi:open="true"
       sodipodi:end="2.2003087"
       sodipodi:start="0.26323271"
       sodipodi:ry="44"
       sodipodi:rx="44"
       sodipodi:cy="319.43057"
       sodipodi:cx="495.34369"
       sodipodi:type="arc"
       id="circle5021"
       style="opacity:1;fill:none;fill-opacity:1;stroke:#e59327;stroke-width:1;stroke-linecap:round;stroke-linejoin:round;stroke-miterlimit:4;stroke-dasharray:none;stroke-dashoffset:0;stroke-opacity:1;marker-end:url(#marker5043)" />
    <path
       sodipodi:open="true"
       d="m 463.93673,350.2462 a 44,44 0 0 1 -7.83066,-50.72565"
       sodipodi:end="3.61116"
       sodipodi:start="2.3656976"
       sodipodi:ry="44"
       sodipodi:rx="44"
       sodipodi:cy="319.43057"
       sodipodi:cx="495.34369"
       sodipodi:type="arc"
       style="opacity:1;fill:none;fill-opacity:1;stroke:#c7106e;stroke-width:1;stroke-linecap:round;stroke-linejoin:round;stroke-miterlimit:4;stroke-dasharray:none;stroke-dashoffset:0;stroke-opacity:1;marker-end:url(#marker5107)"
       id="circle5023" />
    <path
       d="M 460.08834,293.10453 A 44,44 0 0 1 516.2624,280.7213"
       sodipodi:open="true"
       sodipodi:end="5.2078362"
       sodipodi:start="3.7829944"
       sodipodi:ry="44"
       sodipodi:rx="44"
       sodipodi:cy="319.43057"
       sodipodi:cx="495.34369"
       sodipodi:type="arc"
       id="circle5025"
       style="opacity:1;fill:none;fill-opacity:1;stroke:#106ec7;stroke-width:1;stroke-linecap:round;stroke-linejoin:round;stroke-miterlimit:4;stroke-dasharray:none;stroke-dashoffset:0;stroke-opacity:1;marker-end:url(#marker5177)" />
    <path
       id="path5027"
       style="opacity:1;fill:none;fill-opacity:1;stroke:#6ec60f;stroke-width:1;stroke-linecap:round;stroke-linejoin:round;stroke-miterlimit:4;stroke-dasharray:none;stroke-dashoffset:0;stroke-opacity:1;marker-start:url(#marker5529)"
       sodipodi:type="arc"
       sodipodi:cx="495.34369"
       sodipodi:cy="319.43057"
       sodipodi:rx="36.125"
       sodipodi:ry="36.125"
       sodipodi:start="5.3639345"
       sodipodi:end="0.096834523"
       sodipodi:open="true"
       d="m 517.25047,290.70587 a 36.125,36.125 0 0 1 14.04898,32.21739" />
    <path
       style="opacity:1;fill:none;fill-opacity:1;stroke:#e59327;stroke-width:1;stroke-linecap:round;stroke-linejoin:round;stroke-miterlimit:4;stroke-dasharray:none;stroke-dashoffset:0;stroke-opacity:1;marker-start:url(#marker5629)"
       id="path5029"
       sodipodi:type="arc"
       sodipodi:cx="495.34369"
       sodipodi:cy="319.43057"
       sodipodi:rx="35.875"
       sodipodi:ry="35.875"
       sodipodi:start="0.26323271"
       sodipodi:end="2.2003087"
       sodipodi:open="true"
       d="m 529.98293,328.76536 a 35.875,35.875 0 0 1 -22.70835,24.49818 35.875,35.875 0 0 1 -33.05232,-4.83468" />
    <path
       id="path5031"
       style="opacity:1;fill:none;fill-opacity:1;stroke:#c7106e;stroke-width:1;stroke-linecap:round;stroke-linejoin:round;stroke-miterlimit:4;stroke-dasharray:none;stroke-dashoffset:0;stroke-opacity:1;marker-start:url(#marker5347)"
       sodipodi:type="arc"
       sodipodi:cx="495.34369"
       sodipodi:cy="319.43057"
       sodipodi:rx="36.000854"
       sodipodi:ry="36.000854"
       sodipodi:start="2.3656976"
       sodipodi:end="3.61116"
       d="m 469.64648,344.64396 a 36.000854,36.000854 0 0 1 -6.40706,-41.50379"
       sodipodi:open="true" />
    <path
       style="opacity:1;fill:none;fill-opacity:1;stroke:#106ec7;stroke-width:1;stroke-linecap:round;stroke-linejoin:round;stroke-miterlimit:4;stroke-dasharray:none;stroke-dashoffset:0;stroke-opacity:1;marker-start:url(#marker5435)"
       id="path5033"
       sodipodi:type="arc"
       sodipodi:cx="495.34369"
       sodipodi:cy="319.43057"
       sodipodi:rx="36.034782"
       sodipodi:ry="36.034782"
       sodipodi:start="3.7829944"
       sodipodi:end="5.2078362"
       sodipodi:open="true"
       d="m 466.47054,297.87027 a 36.034782,36.034782 0 0 1 46.00499,-10.14152" />
    <path
       sodipodi:nodetypes="cssc"
       inkscape:connector-curvature="0"
       id="path4297"
       d="m 595.55827,365.81412 c 11.22984,-13.42638 28.19126,-31.34554 39.99485,-33.09422 19.09188,-2.82843 13.43503,28.99138 38.89087,24.04163 16.30703,-3.17081 35.41203,-44.94494 45.60075,-71.68738"
       style="fill:none;fill-rule:evenodd;stroke:#000000;stroke-width:1px;stroke-linecap:round;stroke-linejoin:miter;stroke-opacity:1" />
    <path
       style="fill:none;fill-rule:evenodd;stroke:url(#linearGradient4464);stroke-width:1px;stroke-linecap:round;stroke-linejoin:miter;stroke-opacity:1"
       d="m 583.87545,380.68184 c 0,0 4.74879,-6.57739 11.68282,-14.86772"
       id="path4454"
       inkscape:connector-curvature="0"
       sodipodi:nodetypes="cc" />
    <path
       sodipodi:nodetypes="cc"
       inkscape:connector-curvature="0"
       id="path4456"
       d="m 720.04474,285.07415 c 5.71623,-15.00347 8.49292,-27.30757 8.49292,-27.30757"
       style="fill:none;fill-rule:evenodd;stroke:url(#linearGradient4472);stroke-width:1px;stroke-linecap:butt;stroke-linejoin:miter;stroke-opacity:1" />
    <circle
       transform="matrix(0.98912665,0.14706623,-0.14706623,0.98912665,0,0)"
       r="2"
       cy="175.93556"
       cx="754.13666"
       id="path4138-3-1-6"
       style="opacity:1;fill:#ff0000;fill-opacity:1;stroke:none;stroke-width:0.72260422;stroke-linecap:round;stroke-linejoin:round;stroke-miterlimit:4;stroke-dasharray:none;stroke-dashoffset:0;stroke-opacity:1" />
    <circle
       transform="matrix(0.98912665,0.14706623,-0.14706623,0.98912665,0,0)"
       r="2"
       cy="231.04221"
       cx="737.08685"
       id="path4138-3-1-7"
       style="opacity:1;fill:#ff0000;fill-opacity:1;stroke:none;stroke-width:0.72260422;stroke-linecap:round;stroke-linejoin:round;stroke-miterlimit:4;stroke-dasharray:none;stroke-dashoffset:0;stroke-opacity:1" />
    <circle
       transform="matrix(0.98912665,0.14706623,-0.14706623,0.98912665,0,0)"
       r="2"
       cy="235.5853"
       cx="684.43243"
       id="path4138-3-1-5"
       style="opacity:1;fill:#ff0000;fill-opacity:1;stroke:none;stroke-width:0.72260422;stroke-linecap:round;stroke-linejoin:round;stroke-miterlimit:4;stroke-dasharray:none;stroke-dashoffset:0;stroke-opacity:1" />
    <path
       sodipodi:nodetypes="cc"
       inkscape:connector-curvature="0"
       id="path4534"
       d="m 700.46423,336.7579 c 9.31221,-15.29892 17.26761,-34.98848 23.20551,-50.18371"
       style="fill:none;fill-rule:evenodd;stroke:#6ec60f;stroke-width:1px;stroke-linecap:round;stroke-linejoin:miter;stroke-opacity:1;marker-end:url(#marker5604)" />
    <path
       style="fill:none;fill-opacity:1;fill-rule:evenodd;stroke:#c7106e;stroke-width:1px;stroke-linecap:round;stroke-linejoin:miter;stroke-opacity:1;marker-start:url(#marker5315)"
       d="m 595.55827,359.81412 c 11.22984,-13.42638 28.44358,-30.20496 40.24485,-31.96922 1.8076,-0.27023 3.45056,-0.25977 4.95607,-0.0199"
       id="path4536"
       inkscape:connector-curvature="0"
       sodipodi:nodetypes="csc" />
    <path
       sodipodi:nodetypes="csc"
       inkscape:connector-curvature="0"
       id="path4538"
       d="m 646.91834,330.43833 c 10.08256,7.34734 12.76943,26.33085 26.77565,21.69815 5.19841,-1.71943 10.81269,-7.56988 16.34473,-15.60236"
       style="fill:none;fill-rule:evenodd;stroke:#106ec7;stroke-width:1px;stroke-linecap:round;stroke-linejoin:miter;stroke-opacity:1;marker-start:url(#marker5170)" />
    <path
       style="fill:none;fill-rule:evenodd;stroke:#6ec60f;stroke-width:1px;stroke-linecap:round;stroke-linejoin:miter;stroke-opacity:1;marker-start:url(#marker5305)"
       d="m 692.91602,332.15378 c 8.77981,-13.96991 17.12742,-32.6561 23.00372,-48.07968"
       id="path4540"
       inkscape:connector-curvature="0"
       sodipodi:nodetypes="cc" />
    <path
       style="fill:none;fill-rule:evenodd;stroke:#106ec7;stroke-width:1px;stroke-linecap:round;stroke-linejoin:miter;stroke-opacity:1;marker-end:url(#marker5457)"
       d="m 642.11016,339.43814 c 7.74776,6.09483 9.31692,24.63573 32.33383,21.32343 7.99878,-1.15108 15.58409,-8.43574 22.51063,-18.55512"
       id="path4542"
       inkscape:connector-curvature="0"
       sodipodi:nodetypes="csc" />
    <path
       sodipodi:nodetypes="csc"
       inkscape:connector-curvature="0"
       id="path4544"
       d="m 600.30827,366.43912 c 12.35484,-12.55138 22.73785,-26.68071 34.49485,-28.71922 1.135,-0.19679 2.16266,-0.22094 3.10366,-0.0981"
       style="fill:none;fill-opacity:1;fill-rule:evenodd;stroke:#c7106e;stroke-width:1px;stroke-linecap:round;stroke-linejoin:miter;stroke-opacity:1;marker-end:url(#marker5752)" />
    <path
       style="fill:none;fill-rule:evenodd;stroke:#000000;stroke-width:1;stroke-linecap:round;stroke-linejoin:miter;stroke-miterlimit:4;stroke-dasharray:2, 2;stroke-dashoffset:0;stroke-opacity:0.62311557;marker-end:url(#marker6004)"
       d="m 589.55827,357.81412 c 11.22984,-13.42638 29.58491,-31.59202 40.86985,-35.46922 8.78728,-3.01907 18.0856,0.7474 18.0856,0.7474"
       id="path6002"
       inkscape:connector-curvature="0"
       sodipodi:nodetypes="csc" />
    <path
       d="m 476.71516,297.59735 a 28.700378,28.700378 0 0 1 31.89794,-3.61544 28.700378,28.700378 0 0 1 15.29651,28.22351"
       sodipodi:open="true"
       sodipodi:end="0.096834523"
       sodipodi:start="4.0060287"
       sodipodi:ry="28.700378"
       sodipodi:rx="28.700378"
       sodipodi:cy="319.43057"
       sodipodi:cx="495.34369"
       sodipodi:type="arc"
       style="opacity:1;fill:none;fill-opacity:1;stroke:#000000;stroke-width:1;stroke-linecap:round;stroke-linejoin:round;stroke-miterlimit:4;stroke-dasharray:2, 2;stroke-dashoffset:0;stroke-opacity:0.62352941;marker-start:url(#marker6268)"
       id="path6266" />
    <path
       inkscape:connector-curvature="0"
       id="path7013"
       d="m 256.61991,357.48978 75.24837,-52.31312"
       style="fill:none;fill-rule:evenodd;stroke:#000000;stroke-width:1;stroke-linecap:round;stroke-linejoin:miter;stroke-miterlimit:4;stroke-dasharray:2, 2;stroke-dashoffset:0;stroke-opacity:0.62352941;marker-end:url(#marker7015)"
       sodipodi:nodetypes="cc" />
    <g
       id="g8237"
       transform="matrix(0.70114225,-1.455235,1.455235,0.70114225,27.044584,181.13904)">
      <g
         word-spacing="normal"
         letter-spacing="normal"
         font-size-adjust="none"
         font-stretch="normal"
         font-weight="normal"
         font-variant="normal"
         font-style="normal"
         stroke-miterlimit="10.433"
         xml:space="preserve"
         transform="matrix(0.1776911,0,0,-0.1776911,-31.095942,359.71987)"
         id="content"
         style="font-style:normal;font-variant:normal;font-weight:normal;font-stretch:normal;letter-spacing:normal;word-spacing:normal;text-anchor:start;fill:none;fill-opacity:1;fill-rule:evenodd;stroke:#000000;stroke-linecap:butt;stroke-linejoin:miter;stroke-miterlimit:10.43299961;stroke-dasharray:none;stroke-dashoffset:0;stroke-opacity:1"><path
           id="path8240"
           d="m 478.19,431.11 0,0.31 -0.01,0.34 -0.02,0.36 -0.02,0.37 -0.03,0.39 -0.04,0.39 -0.04,0.41 -0.06,0.41 -0.07,0.42 -0.07,0.43 -0.09,0.42 -0.1,0.43 -0.12,0.42 -0.12,0.42 -0.14,0.41 -0.16,0.41 -0.17,0.4 -0.18,0.38 -0.2,0.37 -0.22,0.36 -0.23,0.34 -0.25,0.32 -0.28,0.3 -0.29,0.27 -0.31,0.25 -0.16,0.12 -0.17,0.1 -0.17,0.1 -0.18,0.1 -0.18,0.08 -0.19,0.08 -0.19,0.07 -0.2,0.06 -0.21,0.05 -0.21,0.05 -0.22,0.03 -0.22,0.02 -0.23,0.02 -0.23,0 -0.05,-1.09 c 2.44,0 2.73,-3.19 2.73,-6.03 0,-2.44 -0.39,-4.99 -1.59,-9.92 l -10.41,0 c 0.85,3.2 1.85,7.18 3.83,10.72 1.36,2.43 3.19,5.23 5.44,5.23 l 0.05,1.09 c -6.92,0 -14.6,-14.04 -14.6,-25.45 0,-4.69 1.44,-10.22 5.99,-10.22 l 0,1.1 c -1.66,0 -2.71,1.45 -2.71,6.07 0,2.1 0.3,4.99 1.6,9.86 l 10.37,0 c -0.54,-2.28 -1.59,-6.51 -3.5,-10.11 -1.73,-3.39 -3.62,-5.82 -5.76,-5.82 l 0,-1.1 c 7.01,0 14.59,14.3 14.59,25.46 z"
           inkscape:connector-curvature="0"
           style="fill:#000000;stroke-width:0" /></g>    </g>
    <text
       xml:space="preserve"
       style="font-style:normal;font-variant:normal;font-weight:normal;font-stretch:normal;font-size:18.75px;line-height:100%;font-family:'Ubuntu Condensed';-inkscape-font-specification:'Ubuntu Condensed, ';text-align:center;writing-mode:lr-tb;text-anchor:middle;opacity:1;fill:none;fill-opacity:1;stroke:#000000;stroke-width:1;stroke-linecap:round;stroke-linejoin:round;stroke-miterlimit:4;stroke-dasharray:2, 2;stroke-dashoffset:0;stroke-opacity:0.62352941"
       id="text8351"
       sodipodi:linespacing="100%"
       inkscape:transform-center-x="-4.7336307"
       inkscape:transform-center-y="-12.477572"
       transform="matrix(-0.4355271,0.90017562,-0.90017562,-0.4355271,997.63463,10.495897)"><textPath
         xlink:href="#path8469"
         startOffset="50%"
         id="textPath8630"
         style="font-size:12.5px;fill:#000000;fill-opacity:1;stroke:none"> increases</textPath></text>
    <text
       sodipodi:linespacing="100%"
       id="text8375"
       y="436.87686"
       x="55.795166"
       style="font-style:normal;font-variant:normal;font-weight:normal;font-stretch:normal;font-size:18.75px;line-height:100%;font-family:'Ubuntu Condensed';-inkscape-font-specification:'Ubuntu Condensed, ';text-align:center;writing-mode:lr-tb;text-anchor:middle;opacity:1;fill:none;fill-opacity:1;stroke:#000000;stroke-width:1;stroke-linecap:round;stroke-linejoin:round;stroke-miterlimit:4;stroke-dasharray:2, 2;stroke-dashoffset:0;stroke-opacity:0.62352941"
       xml:space="preserve"
       transform="matrix(0.82308508,-0.56791808,0.56791808,0.82308508,0,0)"><tspan
         style="font-size:12.50000003px;fill:#000000;fill-opacity:1;stroke:none"
         y="436.87686"
         x="55.795166"
         id="tspan8377"
         sodipodi:role="line"> increases</tspan></text>
    <text
       sodipodi:linespacing="100%"
       id="text8387"
       style="font-style:normal;font-variant:normal;font-weight:normal;font-stretch:normal;font-size:18.75px;line-height:100%;font-family:'Ubuntu Condensed';-inkscape-font-specification:'Ubuntu Condensed, ';text-align:center;writing-mode:lr-tb;text-anchor:middle;opacity:1;fill:none;fill-opacity:1;stroke:#000000;stroke-width:1;stroke-linecap:round;stroke-linejoin:round;stroke-miterlimit:4;stroke-dasharray:2, 2;stroke-dashoffset:0;stroke-opacity:0.62352941"
       xml:space="preserve"
       transform="translate(-0.70710679,-2.6516505)"><textPath
         xlink:href="#path6002"
         startOffset="50%"
         id="textPath9065"><tspan
   id="tspan8389"
   style="font-size:15px;fill:#000000;fill-opacity:1;stroke:none"> increases</tspan></textPath></text>
    <circle
       id="path8469"
       style="opacity:1;fill:none;fill-opacity:1;stroke:none;stroke-width:1;stroke-linecap:round;stroke-linejoin:round;stroke-miterlimit:4;stroke-dasharray:2, 2;stroke-dashoffset:0;stroke-opacity:0.62352941;marker-start:url(#marker8471)"
       cx="496.22757"
       cy="317.18808"
       r="17.740225" />
    <g
       transform="matrix(1.0681665,-1.2117464,1.2117464,1.0681665,189.10768,105.44744)"
       id="g9037">
      <g
         style="font-style:normal;font-variant:normal;font-weight:normal;font-stretch:normal;letter-spacing:normal;word-spacing:normal;text-anchor:start;fill:none;fill-opacity:1;fill-rule:evenodd;stroke:#000000;stroke-linecap:butt;stroke-linejoin:miter;stroke-miterlimit:10.43299961;stroke-dasharray:none;stroke-dashoffset:0;stroke-opacity:1"
         id="g9039"
         transform="matrix(0.1776911,0,0,-0.1776911,-31.095942,359.71987)"
         xml:space="preserve"
         stroke-miterlimit="10.433"
         font-style="normal"
         font-variant="normal"
         font-weight="normal"
         font-stretch="normal"
         font-size-adjust="none"
         letter-spacing="normal"
         word-spacing="normal"><path
           style="fill:#000000;stroke-width:0"
           inkscape:connector-curvature="0"
           d="m 478.19,431.11 0,0.31 -0.01,0.34 -0.02,0.36 -0.02,0.37 -0.03,0.39 -0.04,0.39 -0.04,0.41 -0.06,0.41 -0.07,0.42 -0.07,0.43 -0.09,0.42 -0.1,0.43 -0.12,0.42 -0.12,0.42 -0.14,0.41 -0.16,0.41 -0.17,0.4 -0.18,0.38 -0.2,0.37 -0.22,0.36 -0.23,0.34 -0.25,0.32 -0.28,0.3 -0.29,0.27 -0.31,0.25 -0.16,0.12 -0.17,0.1 -0.17,0.1 -0.18,0.1 -0.18,0.08 -0.19,0.08 -0.19,0.07 -0.2,0.06 -0.21,0.05 -0.21,0.05 -0.22,0.03 -0.22,0.02 -0.23,0.02 -0.23,0 -0.05,-1.09 c 2.44,0 2.73,-3.19 2.73,-6.03 0,-2.44 -0.39,-4.99 -1.59,-9.92 l -10.41,0 c 0.85,3.2 1.85,7.18 3.83,10.72 1.36,2.43 3.19,5.23 5.44,5.23 l 0.05,1.09 c -6.92,0 -14.6,-14.04 -14.6,-25.45 0,-4.69 1.44,-10.22 5.99,-10.22 l 0,1.1 c -1.66,0 -2.71,1.45 -2.71,6.07 0,2.1 0.3,4.99 1.6,9.86 l 10.37,0 c -0.54,-2.28 -1.59,-6.51 -3.5,-10.11 -1.73,-3.39 -3.62,-5.82 -5.76,-5.82 l 0,-1.1 c 7.01,0 14.59,14.3 14.59,25.46 z"
           id="path9041" /></g>    </g>
    <g
       id="g9048"
       transform="matrix(1.3186615,-0.93297426,0.93297426,1.3186615,-63.8437,11.685256)">
      <g
         word-spacing="normal"
         letter-spacing="normal"
         font-size-adjust="none"
         font-stretch="normal"
         font-weight="normal"
         font-variant="normal"
         font-style="normal"
         stroke-miterlimit="10.433"
         xml:space="preserve"
         transform="matrix(0.1776911,0,0,-0.1776911,-31.095942,359.71987)"
         id="g9050"
         style="font-style:normal;font-variant:normal;font-weight:normal;font-stretch:normal;letter-spacing:normal;word-spacing:normal;text-anchor:start;fill:none;fill-opacity:1;fill-rule:evenodd;stroke:#000000;stroke-linecap:butt;stroke-linejoin:miter;stroke-miterlimit:10.43299961;stroke-dasharray:none;stroke-dashoffset:0;stroke-opacity:1"><path
           id="path9052"
           d="m 478.19,431.11 0,0.31 -0.01,0.34 -0.02,0.36 -0.02,0.37 -0.03,0.39 -0.04,0.39 -0.04,0.41 -0.06,0.41 -0.07,0.42 -0.07,0.43 -0.09,0.42 -0.1,0.43 -0.12,0.42 -0.12,0.42 -0.14,0.41 -0.16,0.41 -0.17,0.4 -0.18,0.38 -0.2,0.37 -0.22,0.36 -0.23,0.34 -0.25,0.32 -0.28,0.3 -0.29,0.27 -0.31,0.25 -0.16,0.12 -0.17,0.1 -0.17,0.1 -0.18,0.1 -0.18,0.08 -0.19,0.08 -0.19,0.07 -0.2,0.06 -0.21,0.05 -0.21,0.05 -0.22,0.03 -0.22,0.02 -0.23,0.02 -0.23,0 -0.05,-1.09 c 2.44,0 2.73,-3.19 2.73,-6.03 0,-2.44 -0.39,-4.99 -1.59,-9.92 l -10.41,0 c 0.85,3.2 1.85,7.18 3.83,10.72 1.36,2.43 3.19,5.23 5.44,5.23 l 0.05,1.09 c -6.92,0 -14.6,-14.04 -14.6,-25.45 0,-4.69 1.44,-10.22 5.99,-10.22 l 0,1.1 c -1.66,0 -2.71,1.45 -2.71,6.07 0,2.1 0.3,4.99 1.6,9.86 l 10.37,0 c -0.54,-2.28 -1.59,-6.51 -3.5,-10.11 -1.73,-3.39 -3.62,-5.82 -5.76,-5.82 l 0,-1.1 c 7.01,0 14.59,14.3 14.59,25.46 z"
           inkscape:connector-curvature="0"
           style="fill:#000000;stroke-width:0" /></g>    </g>
  </g>
</svg>
