<?xml version="1.0" encoding="UTF-8" standalone="no"?>
<!-- Created with Inkscape (http://www.inkscape.org/) -->

<svg
   xmlns:dc="http://purl.org/dc/elements/1.1/"
   xmlns:cc="http://creativecommons.org/ns#"
   xmlns:rdf="http://www.w3.org/1999/02/22-rdf-syntax-ns#"
   xmlns:svg="http://www.w3.org/2000/svg"
   xmlns="http://www.w3.org/2000/svg"
   xmlns:xlink="http://www.w3.org/1999/xlink"
   xmlns:sodipodi="http://sodipodi.sourceforge.net/DTD/sodipodi-0.dtd"
   xmlns:inkscape="http://www.inkscape.org/namespaces/inkscape"
   width="324.0892"
   height="146.0892"
   viewBox="0 0 324.0892 146.0892"
   id="svg2"
   version="1.1"
   inkscape:version="0.91 r"
   sodipodi:docname="subd_heConstruct.svg"
   inkscape:export-filename="/home/saesha/Dropbox/myGits/dev/subdivision/documentation/figures/subd_heConstruct.png"
   inkscape:export-xdpi="300"
   inkscape:export-ydpi="300">
  <defs
     id="defs4">
    <marker
       inkscape:stockid="Arrow1Mstart"
       orient="auto"
       refY="0.0"
       refX="0.0"
       id="Arrow1Mstart"
       style="overflow:visible"
       inkscape:isstock="true">
      <path
         id="path5674"
         d="M 0.0,0.0 L 5.0,-5.0 L -12.5,0.0 L 5.0,5.0 L 0.0,0.0 z "
         style="fill-rule:evenodd;stroke:#000000;stroke-width:1pt;stroke-opacity:0.62352941;fill:#000000;fill-opacity:0.62352941"
         transform="scale(0.4) translate(10,0)" />
    </marker>
    <marker
       inkscape:stockid="Arrow1Sstart"
       orient="auto"
       refY="0.0"
       refX="0.0"
       id="marker5629"
       style="overflow:visible"
       inkscape:isstock="true">
      <path
         id="path5631"
         d="M 0.0,0.0 L 5.0,-5.0 L -12.5,0.0 L 5.0,5.0 L 0.0,0.0 z "
         style="fill-rule:evenodd;stroke:#106ec7;stroke-width:1pt;stroke-opacity:1;fill:#106ec7;fill-opacity:1"
         transform="scale(0.2) translate(6,0)" />
    </marker>
    <marker
       inkscape:stockid="Arrow1Sstart"
       orient="auto"
       refY="0.0"
       refX="0.0"
       id="marker5529"
       style="overflow:visible"
       inkscape:isstock="true">
      <path
         id="path5531"
         d="M 0.0,0.0 L 5.0,-5.0 L -12.5,0.0 L 5.0,5.0 L 0.0,0.0 z "
         style="fill-rule:evenodd;stroke:#6ec60f;stroke-width:1pt;stroke-opacity:1;fill:#6ec60f;fill-opacity:1"
         transform="scale(0.2) translate(6,0)" />
    </marker>
    <marker
       inkscape:stockid="Arrow1Sstart"
       orient="auto"
       refY="0.0"
       refX="0.0"
       id="marker5435"
       style="overflow:visible"
       inkscape:isstock="true">
      <path
         id="path5437"
         d="M 0.0,0.0 L 5.0,-5.0 L -12.5,0.0 L 5.0,5.0 L 0.0,0.0 z "
         style="fill-rule:evenodd;stroke:#106ec7;stroke-width:1pt;stroke-opacity:1;fill:#106ec7;fill-opacity:1"
         transform="scale(0.2) translate(6,0)" />
    </marker>
    <marker
       inkscape:stockid="Arrow1Sstart"
       orient="auto"
       refY="0.0"
       refX="0.0"
       id="marker5347"
       style="overflow:visible"
       inkscape:isstock="true">
      <path
         id="path5349"
         d="M 0.0,0.0 L 5.0,-5.0 L -12.5,0.0 L 5.0,5.0 L 0.0,0.0 z "
         style="fill-rule:evenodd;stroke:#c7106e;stroke-width:1pt;stroke-opacity:1;fill:#c7106e;fill-opacity:1"
         transform="scale(0.2) translate(6,0)" />
    </marker>
    <marker
       inkscape:isstock="true"
       style="overflow:visible;"
       id="marker5253"
       refX="0.0"
       refY="0.0"
       orient="auto"
       inkscape:stockid="Arrow1Send">
      <path
         transform="scale(0.2) rotate(180) translate(6,0)"
         style="fill-rule:evenodd;stroke:#6ec60f;stroke-width:1pt;stroke-opacity:1;fill:#6ec60f;fill-opacity:1"
         d="M 0.0,0.0 L 5.0,-5.0 L -12.5,0.0 L 5.0,5.0 L 0.0,0.0 z "
         id="path5255" />
    </marker>
    <marker
       inkscape:isstock="true"
       style="overflow:visible;"
       id="marker5177"
       refX="0.0"
       refY="0.0"
       orient="auto"
       inkscape:stockid="Arrow1Send">
      <path
         transform="scale(0.2) rotate(180) translate(6,0)"
         style="fill-rule:evenodd;stroke:#106ec7;stroke-width:1pt;stroke-opacity:1;fill:#106ec7;fill-opacity:1"
         d="M 0.0,0.0 L 5.0,-5.0 L -12.5,0.0 L 5.0,5.0 L 0.0,0.0 z "
         id="path5179" />
    </marker>
    <marker
       inkscape:isstock="true"
       style="overflow:visible;"
       id="marker5107"
       refX="0.0"
       refY="0.0"
       orient="auto"
       inkscape:stockid="Arrow1Send">
      <path
         transform="scale(0.2) rotate(180) translate(6,0)"
         style="fill-rule:evenodd;stroke:#c7106e;stroke-width:1pt;stroke-opacity:1;fill:#c7106e;fill-opacity:1"
         d="M 0.0,0.0 L 5.0,-5.0 L -12.5,0.0 L 5.0,5.0 L 0.0,0.0 z "
         id="path5109" />
    </marker>
    <marker
       inkscape:isstock="true"
       style="overflow:visible;"
       id="marker5043"
       refX="0.0"
       refY="0.0"
       orient="auto"
       inkscape:stockid="Arrow1Send">
      <path
         transform="scale(0.2) rotate(180) translate(6,0)"
         style="fill-rule:evenodd;stroke:#e59327;stroke-width:1pt;stroke-opacity:1;fill:#e59327;fill-opacity:1"
         d="M 0.0,0.0 L 5.0,-5.0 L -12.5,0.0 L 5.0,5.0 L 0.0,0.0 z "
         id="path5045" />
    </marker>
    <marker
       inkscape:isstock="true"
       style="overflow:visible"
       id="marker4816"
       refX="0.0"
       refY="0.0"
       orient="auto"
       inkscape:stockid="Arrow1Sstart">
      <path
         transform="scale(0.2) translate(6,0)"
         style="fill-rule:evenodd;stroke:#6ec60f;stroke-width:1pt;stroke-opacity:1;fill:#6ec60f;fill-opacity:1"
         d="M 0.0,0.0 L 5.0,-5.0 L -12.5,0.0 L 5.0,5.0 L 0.0,0.0 z "
         id="path4818" />
    </marker>
    <marker
       inkscape:isstock="true"
       style="overflow:visible;"
       id="marker4678"
       refX="0.0"
       refY="0.0"
       orient="auto"
       inkscape:stockid="Arrow1Send">
      <path
         transform="scale(0.2) rotate(180) translate(6,0)"
         style="fill-rule:evenodd;stroke:#6ec60f;stroke-width:1pt;stroke-opacity:1;fill:#6ec60f;fill-opacity:1"
         d="M 0.0,0.0 L 5.0,-5.0 L -12.5,0.0 L 5.0,5.0 L 0.0,0.0 z "
         id="path4680" />
    </marker>
    <marker
       inkscape:isstock="true"
       style="overflow:visible;"
       id="marker4668"
       refX="0.0"
       refY="0.0"
       orient="auto"
       inkscape:stockid="Arrow1Send">
      <path
         transform="scale(0.2) rotate(180) translate(6,0)"
         style="fill-rule:evenodd;stroke:#c7106e;stroke-width:1pt;stroke-opacity:1;fill:#c7106e;fill-opacity:1"
         d="M 0.0,0.0 L 5.0,-5.0 L -12.5,0.0 L 5.0,5.0 L 0.0,0.0 z "
         id="path4670" />
    </marker>
    <marker
       inkscape:isstock="true"
       style="overflow:visible;"
       id="marker4596"
       refX="0.0"
       refY="0.0"
       orient="auto"
       inkscape:stockid="Arrow1Mend">
      <path
         transform="scale(0.4) rotate(180) translate(10,0)"
         style="fill-rule:evenodd;stroke:#000000;stroke-width:1pt;stroke-opacity:1;fill:#000000;fill-opacity:1"
         d="M 0.0,0.0 L 5.0,-5.0 L -12.5,0.0 L 5.0,5.0 L 0.0,0.0 z "
         id="path4598" />
    </marker>
    <marker
       inkscape:isstock="true"
       style="overflow:visible;"
       id="marker4574"
       refX="0.0"
       refY="0.0"
       orient="auto"
       inkscape:stockid="Arrow1Mend">
      <path
         transform="scale(0.4) rotate(180) translate(10,0)"
         style="fill-rule:evenodd;stroke:#000000;stroke-width:1pt;stroke-opacity:1;fill:#000000;fill-opacity:1"
         d="M 0.0,0.0 L 5.0,-5.0 L -12.5,0.0 L 5.0,5.0 L 0.0,0.0 z "
         id="path4576" />
    </marker>
    <circle
       id="path8469"
       style="opacity:1;fill:none;fill-opacity:1;stroke:none;stroke-width:1;stroke-linecap:round;stroke-linejoin:round;stroke-miterlimit:4;stroke-dasharray:2, 2;stroke-dashoffset:0;stroke-opacity:0.62352941;marker-start:url(#marker8471)"
       cx="496.22757"
       cy="317.18808"
       r="17.740225" />
    <circle
       id="path8469-3"
       style="opacity:1;fill:none;fill-opacity:1;stroke:none;stroke-width:1;stroke-linecap:round;stroke-linejoin:round;stroke-miterlimit:4;stroke-dasharray:2, 2;stroke-dashoffset:0;stroke-opacity:0.62352941;marker-start:url(#marker8471)"
       cx="496.22757"
       cy="317.18808"
       r="17.740225" />
    <marker
       inkscape:stockid="Arrow1Sstart"
       orient="auto"
       refY="0"
       refX="0"
       id="marker5435-6"
       style="overflow:visible"
       inkscape:isstock="true">
      <path
         inkscape:connector-curvature="0"
         id="path5437-7"
         d="M 0,0 5,-5 -12.5,0 5,5 0,0 Z"
         style="fill:#106ec7;fill-opacity:1;fill-rule:evenodd;stroke:#106ec7;stroke-width:1pt;stroke-opacity:1"
         transform="matrix(0.2,0,0,0.2,1.2,0)" />
    </marker>
    <marker
       inkscape:stockid="Arrow1Sstart"
       orient="auto"
       refY="0"
       refX="0"
       id="marker5347-5"
       style="overflow:visible"
       inkscape:isstock="true">
      <path
         inkscape:connector-curvature="0"
         id="path5349-3"
         d="M 0,0 5,-5 -12.5,0 5,5 0,0 Z"
         style="fill:#c7106e;fill-opacity:1;fill-rule:evenodd;stroke:#c7106e;stroke-width:1pt;stroke-opacity:1"
         transform="matrix(0.2,0,0,0.2,1.2,0)" />
    </marker>
    <marker
       inkscape:stockid="Arrow1Sstart"
       orient="auto"
       refY="0"
       refX="0"
       id="marker5629-5"
       style="overflow:visible"
       inkscape:isstock="true">
      <path
         inkscape:connector-curvature="0"
         id="path5631-6"
         d="M 0,0 5,-5 -12.5,0 5,5 0,0 Z"
         style="fill:#e59327;fill-opacity:1;fill-rule:evenodd;stroke:#e59327;stroke-width:1pt;stroke-opacity:1"
         transform="matrix(0.2,0,0,0.2,1.2,0)" />
    </marker>
    <marker
       inkscape:stockid="Arrow1Sstart"
       orient="auto"
       refY="0"
       refX="0"
       id="marker5529-2"
       style="overflow:visible"
       inkscape:isstock="true">
      <path
         inkscape:connector-curvature="0"
         id="path5531-9"
         d="M 0,0 5,-5 -12.5,0 5,5 0,0 Z"
         style="fill:#6ec60f;fill-opacity:1;fill-rule:evenodd;stroke:#6ec60f;stroke-width:1pt;stroke-opacity:1"
         transform="matrix(0.2,0,0,0.2,1.2,0)" />
    </marker>
    <marker
       inkscape:isstock="true"
       style="overflow:visible"
       id="marker5177-1"
       refX="0"
       refY="0"
       orient="auto"
       inkscape:stockid="Arrow1Send">
      <path
         inkscape:connector-curvature="0"
         transform="matrix(-0.2,0,0,-0.2,-1.2,0)"
         style="fill:#106ec7;fill-opacity:1;fill-rule:evenodd;stroke:#106ec7;stroke-width:1pt;stroke-opacity:1"
         d="M 0,0 5,-5 -12.5,0 5,5 0,0 Z"
         id="path5179-2" />
    </marker>
    <marker
       inkscape:isstock="true"
       style="overflow:visible"
       id="marker5107-7"
       refX="0"
       refY="0"
       orient="auto"
       inkscape:stockid="Arrow1Send">
      <path
         inkscape:connector-curvature="0"
         transform="matrix(-0.2,0,0,-0.2,-1.2,0)"
         style="fill:#c7106e;fill-opacity:1;fill-rule:evenodd;stroke:#c7106e;stroke-width:1pt;stroke-opacity:1"
         d="M 0,0 5,-5 -12.5,0 5,5 0,0 Z"
         id="path5109-0" />
    </marker>
    <marker
       inkscape:isstock="true"
       style="overflow:visible"
       id="marker5043-9"
       refX="0"
       refY="0"
       orient="auto"
       inkscape:stockid="Arrow1Send">
      <path
         inkscape:connector-curvature="0"
         transform="matrix(-0.2,0,0,-0.2,-1.2,0)"
         style="fill:#e59327;fill-opacity:1;fill-rule:evenodd;stroke:#e59327;stroke-width:1pt;stroke-opacity:1"
         d="M 0,0 5,-5 -12.5,0 5,5 0,0 Z"
         id="path5045-3" />
    </marker>
    <marker
       inkscape:isstock="true"
       style="overflow:visible"
       id="marker5253-6"
       refX="0"
       refY="0"
       orient="auto"
       inkscape:stockid="Arrow1Send">
      <path
         inkscape:connector-curvature="0"
         transform="matrix(-0.2,0,0,-0.2,-1.2,0)"
         style="fill:#6ec60f;fill-opacity:1;fill-rule:evenodd;stroke:#6ec60f;stroke-width:1pt;stroke-opacity:1"
         d="M 0,0 5,-5 -12.5,0 5,5 0,0 Z"
         id="path5255-0" />
    </marker>
    <marker
       inkscape:isstock="true"
       style="overflow:visible"
       id="marker4816-6"
       refX="0"
       refY="0"
       orient="auto"
       inkscape:stockid="Arrow1Sstart">
      <path
         inkscape:connector-curvature="0"
         transform="matrix(0.2,0,0,0.2,1.2,0)"
         style="fill:#6ec60f;fill-opacity:1;fill-rule:evenodd;stroke:#6ec60f;stroke-width:1pt;stroke-opacity:1"
         d="M 0,0 5,-5 -12.5,0 5,5 0,0 Z"
         id="path4818-2" />
    </marker>
    <marker
       inkscape:isstock="true"
       style="overflow:visible"
       id="marker4668-6"
       refX="0"
       refY="0"
       orient="auto"
       inkscape:stockid="Arrow1Send">
      <path
         inkscape:connector-curvature="0"
         transform="matrix(-0.2,0,0,-0.2,-1.2,0)"
         style="fill:#c7106e;fill-opacity:1;fill-rule:evenodd;stroke:#c7106e;stroke-width:1pt;stroke-opacity:1"
         d="M 0,0 5,-5 -12.5,0 5,5 0,0 Z"
         id="path4670-1" />
    </marker>
    <marker
       inkscape:isstock="true"
       style="overflow:visible"
       id="marker4678-8"
       refX="0"
       refY="0"
       orient="auto"
       inkscape:stockid="Arrow1Send">
      <path
         inkscape:connector-curvature="0"
         transform="matrix(-0.2,0,0,-0.2,-1.2,0)"
         style="fill:#6ec60f;fill-opacity:1;fill-rule:evenodd;stroke:#6ec60f;stroke-width:1pt;stroke-opacity:1"
         d="M 0,0 5,-5 -12.5,0 5,5 0,0 Z"
         id="path4680-7" />
    </marker>
    <marker
       inkscape:stockid="Arrow1Send"
       orient="auto"
       refY="0"
       refX="0"
       id="Arrow1Send"
       style="overflow:visible"
       inkscape:isstock="true"
       inkscape:collect="always">
      <path
         inkscape:connector-curvature="0"
         id="path4313"
         d="M 0,0 5,-5 -12.5,0 5,5 0,0 Z"
         style="fill:#106ec7;fill-opacity:1;fill-rule:evenodd;stroke:#106ec7;stroke-width:1pt;stroke-opacity:1"
         transform="matrix(-0.2,0,0,-0.2,-1.2,0)" />
    </marker>
    <linearGradient
       inkscape:collect="always"
       xlink:href="#linearGradient4147"
       id="linearGradient4153"
       x1="373.05936"
       y1="260.39194"
       x2="405.68799"
       y2="260.39194"
       gradientUnits="userSpaceOnUse"
       gradientTransform="matrix(0.99064725,0.13644789,-0.13644789,0.99064725,53.641027,-41.727014)" />
    <linearGradient
       inkscape:collect="always"
       id="linearGradient4147">
      <stop
         style="stop-color:#000000;stop-opacity:1;"
         offset="0"
         id="stop4149" />
      <stop
         style="stop-color:#000000;stop-opacity:0;"
         offset="1"
         id="stop4151" />
    </linearGradient>
    <linearGradient
       inkscape:collect="always"
       xlink:href="#linearGradient4147"
       id="linearGradient4161"
       x1="246.58679"
       y1="376.79196"
       x2="279.21542"
       y2="376.79196"
       gradientUnits="userSpaceOnUse"
       gradientTransform="matrix(-0.99064725,-0.13644789,0.13644789,-0.99064725,471.70063,776.55341)" />
    <marker
       inkscape:stockid="Arrow1Send"
       orient="auto"
       refY="0"
       refX="0"
       id="marker7015"
       style="overflow:visible"
       inkscape:isstock="true">
      <path
         inkscape:connector-curvature="0"
         id="path7017"
         d="M 0,0 5,-5 -12.5,0 5,5 0,0 Z"
         style="fill:#000000;fill-opacity:0.62352941;fill-rule:evenodd;stroke:#000000;stroke-width:1pt;stroke-opacity:0.62352941"
         transform="matrix(-0.2,0,0,-0.2,-1.2,0)" />
    </marker>
  </defs>
  <sodipodi:namedview
     id="base"
     pagecolor="#ffffff"
     bordercolor="#666666"
     borderopacity="1.0"
     inkscape:pageopacity="0.0"
     inkscape:pageshadow="2"
     inkscape:zoom="4"
     inkscape:cx="140.79031"
     inkscape:cy="66.041179"
     inkscape:document-units="px"
     inkscape:current-layer="layer1"
     showgrid="false"
     inkscape:window-width="1863"
     inkscape:window-height="1176"
     inkscape:window-x="57"
     inkscape:window-y="24"
     inkscape:window-maximized="1"
     fit-margin-top="0"
     fit-margin-left="0"
     fit-margin-right="0"
     fit-margin-bottom="0"
     units="px" />
  <metadata
     id="metadata7">
    <rdf:RDF>
      <cc:Work
         rdf:about="">
        <dc:format>image/svg+xml</dc:format>
        <dc:type
           rdf:resource="http://purl.org/dc/dcmitype/StillImage" />
        <dc:title />
      </cc:Work>
    </rdf:RDF>
  </metadata>
  <g
     inkscape:label="Layer 1"
     inkscape:groupmode="layer"
     id="layer1"
     transform="translate(-234.0937,-245.34138)">
    <path
       inkscape:connector-curvature="0"
       id="path4142"
       d="m 315.61042,330.64279 35.29306,-24.51361"
       style="fill:none;fill-rule:evenodd;stroke:#000000;stroke-width:1px;stroke-linecap:round;stroke-linejoin:miter;stroke-opacity:1"
       sodipodi:nodetypes="cc" />
    <path
       sodipodi:nodetypes="cc"
       style="fill:none;fill-rule:evenodd;stroke:url(#linearGradient4161);stroke-width:1px;stroke-linecap:round;stroke-linejoin:miter;stroke-opacity:1"
       d="M 280.31736,355.1564 245.0243,379.67"
       id="path4138"
       inkscape:connector-curvature="0" />
    <path
       inkscape:connector-curvature="0"
       id="path4140"
       d="m 280.31736,355.1564 35.29306,-24.51361"
       style="fill:none;fill-rule:evenodd;stroke:#000000;stroke-width:1px;stroke-linecap:round;stroke-linejoin:miter;stroke-opacity:1"
       sodipodi:nodetypes="cc" />
    <path
       sodipodi:nodetypes="cc"
       style="fill:none;fill-rule:evenodd;stroke:#000000;stroke-width:1px;stroke-linecap:round;stroke-linejoin:miter;stroke-opacity:1"
       d="m 350.90348,306.12918 35.29305,-24.51361"
       id="path4143"
       inkscape:connector-curvature="0" />
    <path
       inkscape:connector-curvature="0"
       id="path4145"
       d="m 386.19653,281.61557 35.29306,-24.5136"
       style="fill:none;fill-rule:evenodd;stroke:url(#linearGradient4153);stroke-width:1px;stroke-linecap:round;stroke-linejoin:miter;stroke-opacity:1"
       sodipodi:nodetypes="cc" />
    <circle
       style="opacity:1;fill:#ff0000;fill-opacity:1;stroke:none;stroke-width:0.72260422;stroke-linecap:round;stroke-linejoin:round;stroke-miterlimit:4;stroke-dasharray:none;stroke-dashoffset:0;stroke-opacity:1"
       id="path4138-3"
       cx="420.8425"
       cy="226.3165"
       r="2"
       transform="matrix(0.99064725,0.13644789,-0.13644789,0.99064725,0,0)" />
    <circle
       r="2"
       cy="255.27946"
       cx="389.43414"
       id="circle4169"
       style="opacity:1;fill:#ff0000;fill-opacity:1;stroke:none;stroke-width:0.72260422;stroke-linecap:round;stroke-linejoin:round;stroke-miterlimit:4;stroke-dasharray:none;stroke-dashoffset:0;stroke-opacity:1"
       transform="matrix(0.99064725,0.13644789,-0.13644789,0.99064725,0,0)" />
    <circle
       style="opacity:1;fill:#ff0000;fill-opacity:1;stroke:none;stroke-width:0.72260422;stroke-linecap:round;stroke-linejoin:round;stroke-miterlimit:4;stroke-dasharray:none;stroke-dashoffset:0;stroke-opacity:1"
       id="path4138-7"
       cx="358.02582"
       cy="284.2424"
       r="2"
       transform="matrix(0.99064725,0.13644789,-0.13644789,0.99064725,0,0)" />
    <circle
       style="opacity:1;fill:#ff0000;fill-opacity:1;stroke:none;stroke-width:0.72260422;stroke-linecap:round;stroke-linejoin:round;stroke-miterlimit:4;stroke-dasharray:none;stroke-dashoffset:0;stroke-opacity:1"
       id="path4138-5"
       cx="326.61752"
       cy="313.20535"
       r="2"
       transform="matrix(0.99064725,0.13644789,-0.13644789,0.99064725,0,0)" />
    <path
       sodipodi:nodetypes="cc"
       style="fill:none;fill-rule:evenodd;stroke:#106ec7;stroke-width:1px;stroke-linecap:round;stroke-linejoin:miter;stroke-opacity:1;marker-end:url(#Arrow1Send)"
       d="M 317.03252,322.7702 343.0309,304.70708"
       id="path4282"
       inkscape:connector-curvature="0" />
    <path
       sodipodi:nodetypes="cc"
       style="fill:none;fill-rule:evenodd;stroke:#6ec60f;stroke-width:1px;stroke-linecap:round;stroke-linejoin:miter;stroke-opacity:1;marker-end:url(#marker4678-8)"
       d="m 281.73946,347.28381 25.99837,-18.06312"
       id="path4284"
       inkscape:connector-curvature="0" />
    <path
       inkscape:connector-curvature="0"
       id="path4286"
       d="m 352.32558,298.25659 25.99837,-18.06312"
       style="fill:none;fill-rule:evenodd;stroke:#c7106e;stroke-width:1px;stroke-linecap:round;stroke-linejoin:miter;stroke-opacity:1;marker-end:url(#marker4668-6)"
       sodipodi:nodetypes="cc" />
    <path
       inkscape:connector-curvature="0"
       id="path4288"
       d="m 323.48301,332.06489 25.99837,-18.06313"
       style="fill:none;fill-rule:evenodd;stroke:#106ec7;stroke-width:1px;stroke-linecap:round;stroke-linejoin:miter;stroke-opacity:1"
       sodipodi:nodetypes="cc" />
    <path
       inkscape:connector-curvature="0"
       id="path4290"
       d="m 288.18994,356.5785 25.99838,-18.06312"
       style="fill:none;fill-rule:evenodd;stroke:#6ec60f;stroke-width:1px;stroke-linecap:round;stroke-linejoin:miter;stroke-opacity:1"
       sodipodi:nodetypes="cc" />
    <path
       sodipodi:nodetypes="cc"
       style="fill:none;fill-rule:evenodd;stroke:#c7106e;stroke-width:1px;stroke-linecap:round;stroke-linejoin:miter;stroke-opacity:1"
       d="m 358.77607,307.55128 25.99836,-18.06312"
       id="path4292"
       inkscape:connector-curvature="0" />
    <circle
       style="opacity:1;fill:none;fill-opacity:1;stroke:#000000;stroke-width:1;stroke-linecap:round;stroke-linejoin:round;stroke-miterlimit:4;stroke-dasharray:none;stroke-dashoffset:0;stroke-opacity:1"
       id="path4195"
       cx="496.46323"
       cy="319.22461"
       r="40.25" />
    <circle
       style="opacity:1;fill:#ff0000;fill-opacity:1;stroke:none;stroke-width:0.72260422;stroke-linecap:round;stroke-linejoin:round;stroke-miterlimit:4;stroke-dasharray:none;stroke-dashoffset:0;stroke-opacity:1"
       id="path4138-3-1"
       cx="554.8927"
       cy="206.40547"
       r="2"
       transform="matrix(0.98912665,0.14706623,-0.14706623,0.98912665,0,0)" />
    <circle
       r="2"
       cy="226.81625"
       cx="501.10812"
       id="circle4169-2"
       style="opacity:1;fill:#ff0000;fill-opacity:1;stroke:none;stroke-width:0.72260422;stroke-linecap:round;stroke-linejoin:round;stroke-miterlimit:4;stroke-dasharray:none;stroke-dashoffset:0;stroke-opacity:1"
       transform="matrix(0.98912665,0.14706623,-0.14706623,0.98912665,0,0)" />
    <circle
       style="opacity:1;fill:#ff0000;fill-opacity:1;stroke:none;stroke-width:0.72260422;stroke-linecap:round;stroke-linejoin:round;stroke-miterlimit:4;stroke-dasharray:none;stroke-dashoffset:0;stroke-opacity:1"
       id="path4138-7-7"
       cx="516.4187"
       cy="276.76163"
       r="2"
       transform="matrix(0.98912665,0.14706623,-0.14706623,0.98912665,0,0)" />
    <circle
       style="opacity:1;fill:#ff0000;fill-opacity:1;stroke:none;stroke-width:0.72260422;stroke-linecap:round;stroke-linejoin:round;stroke-miterlimit:4;stroke-dasharray:none;stroke-dashoffset:0;stroke-opacity:1"
       id="path4138-5-0"
       cx="578.29761"
       cy="243.83215"
       r="2"
       transform="matrix(0.98912665,0.14706623,-0.14706623,0.98912665,0,0)" />
    <path
       id="circle5011"
       style="opacity:1;fill:none;fill-opacity:1;stroke:#6ec60f;stroke-width:1;stroke-linecap:round;stroke-linejoin:round;stroke-miterlimit:4;stroke-dasharray:none;stroke-dashoffset:0;stroke-opacity:1;marker-end:url(#marker5253-6)"
       sodipodi:type="arc"
       sodipodi:cx="496.46323"
       sodipodi:cy="319.22461"
       sodipodi:rx="44"
       sodipodi:ry="44"
       sodipodi:start="5.423237"
       sodipodi:end="0.057525802"
       sodipodi:open="true"
       d="m 525.1722,285.88102 a 44,44 0 0 1 15.21824,35.87333" />
    <path
       style="opacity:1;fill:none;fill-opacity:1;stroke:#e59327;stroke-width:1;stroke-linecap:round;stroke-linejoin:round;stroke-miterlimit:4;stroke-dasharray:none;stroke-dashoffset:0;stroke-opacity:1;marker-end:url(#marker5043-9)"
       id="circle5021"
       sodipodi:type="arc"
       sodipodi:cx="496.46323"
       sodipodi:cy="319.22461"
       sodipodi:rx="44"
       sodipodi:ry="44"
       sodipodi:start="0.30906396"
       sodipodi:end="2.150987"
       sodipodi:open="true"
       d="m 538.37845,332.60796 a 44,44 0 0 1 -27.20982,28.08653 44,44 0 0 1 -38.82547,-4.67012" />
    <path
       id="circle5023"
       style="opacity:1;fill:none;fill-opacity:1;stroke:#c7106e;stroke-width:1;stroke-linecap:round;stroke-linejoin:round;stroke-miterlimit:4;stroke-dasharray:none;stroke-dashoffset:0;stroke-opacity:1;marker-end:url(#marker5107-7)"
       sodipodi:type="arc"
       sodipodi:cx="496.46323"
       sodipodi:cy="319.22461"
       sodipodi:rx="44"
       sodipodi:ry="44"
       sodipodi:start="2.3892599"
       sodipodi:end="3.5674093"
       d="m 464.33897,349.29173 a 44,44 0 0 1 -7.94662,-48.24196"
       sodipodi:open="true" />
    <path
       style="opacity:1;fill:none;fill-opacity:1;stroke:#106ec7;stroke-width:1;stroke-linecap:round;stroke-linejoin:round;stroke-miterlimit:4;stroke-dasharray:none;stroke-dashoffset:0;stroke-opacity:1;marker-end:url(#marker5177-1)"
       id="circle5025"
       sodipodi:type="arc"
       sodipodi:cx="496.46323"
       sodipodi:cy="319.22461"
       sodipodi:rx="44"
       sodipodi:ry="44"
       sodipodi:start="3.8110109"
       sodipodi:end="5.168264"
       sodipodi:open="true"
       d="m 461.95918,291.92129 a 44,44 0 0 1 53.87496,-12.20323" />
    <path
       d="m 519.86329,291.70275 a 36.125,36.125 0 0 1 12.67057,29.50298"
       sodipodi:open="true"
       sodipodi:end="0.054868139"
       sodipodi:start="5.4170199"
       sodipodi:ry="36.125"
       sodipodi:rx="36.125"
       sodipodi:cy="319.22461"
       sodipodi:cx="496.46323"
       sodipodi:type="arc"
       style="opacity:1;fill:none;fill-opacity:1;stroke:#6ec60f;stroke-width:1;stroke-linecap:round;stroke-linejoin:round;stroke-miterlimit:4;stroke-dasharray:none;stroke-dashoffset:0;stroke-opacity:1"
       id="path5027" />
    <path
       d="m 530.58542,330.30124 a 35.875,35.875 0 0 1 -23.0519,23.04762 35.875,35.875 0 0 1 -32.19172,-5.12596"
       sodipodi:open="true"
       sodipodi:end="2.2003087"
       sodipodi:start="0.31388513"
       sodipodi:ry="35.875"
       sodipodi:rx="35.875"
       sodipodi:cy="319.22461"
       sodipodi:cx="496.46323"
       sodipodi:type="arc"
       id="path5029"
       style="opacity:1;fill:none;fill-opacity:1;stroke:#e59327;stroke-width:1;stroke-linecap:round;stroke-linejoin:round;stroke-miterlimit:4;stroke-dasharray:none;stroke-dashoffset:0;stroke-opacity:1" />
    <path
       sodipodi:open="true"
       d="m 470.76602,344.438 a 36.000854,36.000854 0 0 1 -6.80946,-40.68523"
       sodipodi:end="3.5858231"
       sodipodi:start="2.3656976"
       sodipodi:ry="36.000854"
       sodipodi:rx="36.000854"
       sodipodi:cy="319.22461"
       sodipodi:cx="496.46323"
       sodipodi:type="arc"
       style="opacity:1;fill:none;fill-opacity:1;stroke:#c7106e;stroke-width:1;stroke-linecap:round;stroke-linejoin:round;stroke-miterlimit:4;stroke-dasharray:none;stroke-dashoffset:0;stroke-opacity:1"
       id="path5031" />
    <path
       d="m 468.67163,296.28702 a 36.034782,36.034782 0 0 1 44.16175,-9.16418"
       sodipodi:open="true"
       sodipodi:end="5.1839612"
       sodipodi:start="3.8315966"
       sodipodi:ry="36.034782"
       sodipodi:rx="36.034782"
       sodipodi:cy="319.22461"
       sodipodi:cx="496.46323"
       sodipodi:type="arc"
       id="path5033"
       style="opacity:1;fill:none;fill-opacity:1;stroke:#106ec7;stroke-width:1;stroke-linecap:round;stroke-linejoin:round;stroke-miterlimit:4;stroke-dasharray:none;stroke-dashoffset:0;stroke-opacity:1;marker-start:url(#marker5629)" />
    <path
       d="m 478.93418,297.70566 a 28.700378,28.700378 0 0 1 29.94342,-4.54262 28.700378,28.700378 0 0 1 17.34373,24.82818"
       sodipodi:open="true"
       sodipodi:end="6.2292343"
       sodipodi:start="4.0060287"
       sodipodi:ry="28.700378"
       sodipodi:rx="28.700378"
       sodipodi:cy="319.53888"
       sodipodi:cx="497.56271"
       sodipodi:type="arc"
       style="opacity:1;fill:none;fill-opacity:1;stroke:#000000;stroke-width:1;stroke-linecap:round;stroke-linejoin:round;stroke-miterlimit:4;stroke-dasharray:2, 2;stroke-dashoffset:0;stroke-opacity:0.62352941;marker-start:url(#Arrow1Mstart)"
       id="path6266" />
    <text
       xml:space="preserve"
       style="font-style:normal;font-variant:normal;font-weight:normal;font-stretch:normal;font-size:18.75px;line-height:100%;font-family:'Ubuntu Condensed';-inkscape-font-specification:'Ubuntu Condensed, ';text-align:center;writing-mode:lr-tb;text-anchor:middle;opacity:1;fill:none;fill-opacity:1;stroke:#000000;stroke-width:1;stroke-linecap:round;stroke-linejoin:round;stroke-miterlimit:4;stroke-dasharray:2, 2;stroke-dashoffset:0;stroke-opacity:0.62352941"
       id="text8351"
       sodipodi:linespacing="100%"
       inkscape:transform-center-x="-4.7336307"
       inkscape:transform-center-y="-12.477572"
       transform="matrix(-0.4355271,0.90017562,-0.90017562,-0.4355271,999.9063,10.710635)"
       x="-904.13123"
       y="-1229.2146"><textPath
         xlink:href="#path8469-3"
         startOffset="50%"
         id="textPath8630"
         style="font-size:12.5px;fill:#000000;fill-opacity:1;stroke:none"> increases</textPath></text>
    <g
       id="g8237"
       transform="matrix(0.70114225,-1.455235,1.455235,0.70114225,31.130254,181.96183)">
      <g
         word-spacing="normal"
         letter-spacing="normal"
         font-size-adjust="none"
         font-stretch="normal"
         font-weight="normal"
         font-variant="normal"
         font-style="normal"
         stroke-miterlimit="10.433"
         xml:space="preserve"
         transform="matrix(0.1776911,0,0,-0.1776911,-31.095942,359.71987)"
         id="content"
         style="font-style:normal;font-variant:normal;font-weight:normal;font-stretch:normal;letter-spacing:normal;word-spacing:normal;text-anchor:start;fill:none;fill-opacity:1;fill-rule:evenodd;stroke:#000000;stroke-linecap:butt;stroke-linejoin:miter;stroke-miterlimit:10.43299961;stroke-dasharray:none;stroke-dashoffset:0;stroke-opacity:1"><path
           id="path8240"
           d="m 478.19,431.11 0,0.31 -0.01,0.34 -0.02,0.36 -0.02,0.37 -0.03,0.39 -0.04,0.39 -0.04,0.41 -0.06,0.41 -0.07,0.42 -0.07,0.43 -0.09,0.42 -0.1,0.43 -0.12,0.42 -0.12,0.42 -0.14,0.41 -0.16,0.41 -0.17,0.4 -0.18,0.38 -0.2,0.37 -0.22,0.36 -0.23,0.34 -0.25,0.32 -0.28,0.3 -0.29,0.27 -0.31,0.25 -0.16,0.12 -0.17,0.1 -0.17,0.1 -0.18,0.1 -0.18,0.08 -0.19,0.08 -0.19,0.07 -0.2,0.06 -0.21,0.05 -0.21,0.05 -0.22,0.03 -0.22,0.02 -0.23,0.02 -0.23,0 -0.05,-1.09 c 2.44,0 2.73,-3.19 2.73,-6.03 0,-2.44 -0.39,-4.99 -1.59,-9.92 l -10.41,0 c 0.85,3.2 1.85,7.18 3.83,10.72 1.36,2.43 3.19,5.23 5.44,5.23 l 0.05,1.09 c -6.92,0 -14.6,-14.04 -14.6,-25.45 0,-4.69 1.44,-10.22 5.99,-10.22 l 0,1.1 c -1.66,0 -2.71,1.45 -2.71,6.07 0,2.1 0.3,4.99 1.6,9.86 l 10.37,0 c -0.54,-2.28 -1.59,-6.51 -3.5,-10.11 -1.73,-3.39 -3.62,-5.82 -5.76,-5.82 l 0,-1.1 c 7.01,0 14.59,14.3 14.59,25.46 z"
           inkscape:connector-curvature="0"
           style="fill:#000000;stroke-width:0" /></g>    </g>
    <path
       inkscape:connector-curvature="0"
       id="path7013"
       d="m 285.75195,333.83599 75.24837,-52.31312"
       style="fill:none;fill-rule:evenodd;stroke:#000000;stroke-width:1;stroke-linecap:round;stroke-linejoin:miter;stroke-miterlimit:4;stroke-dasharray:2, 2;stroke-dashoffset:0;stroke-opacity:0.62352941;marker-end:url(#marker7015)"
       sodipodi:nodetypes="cc" />
    <text
       sodipodi:linespacing="100%"
       id="text8375"
       y="433.95233"
       x="93.206726"
       style="font-style:normal;font-variant:normal;font-weight:normal;font-stretch:normal;font-size:18.75px;line-height:100%;font-family:'Ubuntu Condensed';-inkscape-font-specification:'Ubuntu Condensed, ';text-align:center;writing-mode:lr-tb;text-anchor:middle;opacity:1;fill:none;fill-opacity:1;stroke:#000000;stroke-width:1;stroke-linecap:round;stroke-linejoin:round;stroke-miterlimit:4;stroke-dasharray:2, 2;stroke-dashoffset:0;stroke-opacity:0.62352941"
       xml:space="preserve"
       transform="matrix(0.82308508,-0.56791808,0.56791808,0.82308508,0,0)"><tspan
         style="font-size:12.5px;fill:#000000;fill-opacity:1;stroke:none"
         y="433.95233"
         x="93.206726"
         id="tspan8377"
         sodipodi:role="line"> increases</tspan></text>
    <g
       id="g9048"
       transform="matrix(1.3186615,-0.93297426,0.93297426,1.3186615,-34.711664,-11.968537)">
      <g
         word-spacing="normal"
         letter-spacing="normal"
         font-size-adjust="none"
         font-stretch="normal"
         font-weight="normal"
         font-variant="normal"
         font-style="normal"
         stroke-miterlimit="10.433"
         xml:space="preserve"
         transform="matrix(0.1776911,0,0,-0.1776911,-31.095942,359.71987)"
         id="g9050"
         style="font-style:normal;font-variant:normal;font-weight:normal;font-stretch:normal;letter-spacing:normal;word-spacing:normal;text-anchor:start;fill:none;fill-opacity:1;fill-rule:evenodd;stroke:#000000;stroke-linecap:butt;stroke-linejoin:miter;stroke-miterlimit:10.43299961;stroke-dasharray:none;stroke-dashoffset:0;stroke-opacity:1"><path
           id="path9052"
           d="m 478.19,431.11 0,0.31 -0.01,0.34 -0.02,0.36 -0.02,0.37 -0.03,0.39 -0.04,0.39 -0.04,0.41 -0.06,0.41 -0.07,0.42 -0.07,0.43 -0.09,0.42 -0.1,0.43 -0.12,0.42 -0.12,0.42 -0.14,0.41 -0.16,0.41 -0.17,0.4 -0.18,0.38 -0.2,0.37 -0.22,0.36 -0.23,0.34 -0.25,0.32 -0.28,0.3 -0.29,0.27 -0.31,0.25 -0.16,0.12 -0.17,0.1 -0.17,0.1 -0.18,0.1 -0.18,0.08 -0.19,0.08 -0.19,0.07 -0.2,0.06 -0.21,0.05 -0.21,0.05 -0.22,0.03 -0.22,0.02 -0.23,0.02 -0.23,0 -0.05,-1.09 c 2.44,0 2.73,-3.19 2.73,-6.03 0,-2.44 -0.39,-4.99 -1.59,-9.92 l -10.41,0 c 0.85,3.2 1.85,7.18 3.83,10.72 1.36,2.43 3.19,5.23 5.44,5.23 l 0.05,1.09 c -6.92,0 -14.6,-14.04 -14.6,-25.45 0,-4.69 1.44,-10.22 5.99,-10.22 l 0,1.1 c -1.66,0 -2.71,1.45 -2.71,6.07 0,2.1 0.3,4.99 1.6,9.86 l 10.37,0 c -0.54,-2.28 -1.59,-6.51 -3.5,-10.11 -1.73,-3.39 -3.62,-5.82 -5.76,-5.82 l 0,-1.1 c 7.01,0 14.59,14.3 14.59,25.46 z"
           inkscape:connector-curvature="0"
           style="fill:#000000;stroke-width:0" /></g>    </g>
    <text
       xml:space="preserve"
       style="font-style:normal;font-variant:normal;font-weight:normal;font-stretch:normal;font-size:62.5px;line-height:100%;font-family:'Ubuntu Condensed';-inkscape-font-specification:'Ubuntu Condensed, ';text-align:center;writing-mode:lr-tb;text-anchor:middle;opacity:1;fill:#6ec60f;fill-opacity:0.39215686;stroke:#6ec60f;stroke-width:1;stroke-linecap:round;stroke-linejoin:round;stroke-miterlimit:4;stroke-dasharray:none;stroke-dashoffset:0;stroke-opacity:1"
       x="284.7565"
       y="364.7746"
       id="text7900"
       sodipodi:linespacing="100%"><tspan
         sodipodi:role="line"
         id="tspan7902"
         x="284.7565"
         y="364.7746"
         style="font-size:12.5px;fill:#000000;fill-opacity:1;stroke:none">1</tspan></text>
    <text
       xml:space="preserve"
       style="font-style:normal;font-variant:normal;font-weight:normal;font-stretch:normal;font-size:62.5px;line-height:100%;font-family:'Ubuntu Condensed';-inkscape-font-specification:'Ubuntu Condensed, ';text-align:center;writing-mode:lr-tb;text-anchor:middle;opacity:1;fill:#6ec60f;fill-opacity:0.39215686;stroke:#6ec60f;stroke-width:1;stroke-linecap:round;stroke-linejoin:round;stroke-miterlimit:4;stroke-dasharray:none;stroke-dashoffset:0;stroke-opacity:1"
       x="319.0849"
       y="342.63284"
       id="text7900-1"
       sodipodi:linespacing="100%"><tspan
         sodipodi:role="line"
         id="tspan7902-2"
         x="319.0849"
         y="342.63284"
         style="font-size:12.5px;fill:#000000;fill-opacity:1;stroke:none">2</tspan></text>
    <text
       xml:space="preserve"
       style="font-style:normal;font-variant:normal;font-weight:normal;font-stretch:normal;font-size:62.5px;line-height:100%;font-family:'Ubuntu Condensed';-inkscape-font-specification:'Ubuntu Condensed, ';text-align:center;writing-mode:lr-tb;text-anchor:middle;opacity:1;fill:#6ec60f;fill-opacity:0.39215686;stroke:#6ec60f;stroke-width:1;stroke-linecap:round;stroke-linejoin:round;stroke-miterlimit:4;stroke-dasharray:none;stroke-dashoffset:0;stroke-opacity:1"
       x="354.57584"
       y="318.10361"
       id="text7900-9"
       sodipodi:linespacing="100%"><tspan
         sodipodi:role="line"
         id="tspan7902-3"
         x="354.57584"
         y="318.10361"
         style="font-size:12.5px;fill:#000000;fill-opacity:1;stroke:none">3</tspan></text>
    <text
       xml:space="preserve"
       style="font-style:normal;font-variant:normal;font-weight:normal;font-stretch:normal;font-size:62.5px;line-height:100%;font-family:'Ubuntu Condensed';-inkscape-font-specification:'Ubuntu Condensed, ';text-align:center;writing-mode:lr-tb;text-anchor:middle;opacity:1;fill:#6ec60f;fill-opacity:0.39215686;stroke:#6ec60f;stroke-width:1;stroke-linecap:round;stroke-linejoin:round;stroke-miterlimit:4;stroke-dasharray:none;stroke-dashoffset:0;stroke-opacity:1"
       x="389.97925"
       y="291.76184"
       id="text7900-19"
       sodipodi:linespacing="100%"><tspan
         sodipodi:role="line"
         id="tspan7902-4"
         x="389.97925"
         y="291.76184"
         style="font-size:12.5px;fill:#000000;fill-opacity:1;stroke:none">4</tspan></text>
    <text
       xml:space="preserve"
       style="font-style:normal;font-variant:normal;font-weight:normal;font-stretch:normal;font-size:62.5px;line-height:100%;font-family:'Ubuntu Condensed';-inkscape-font-specification:'Ubuntu Condensed, ';text-align:center;writing-mode:lr-tb;text-anchor:middle;opacity:1;fill:#6ec60f;fill-opacity:0.39215686;stroke:#6ec60f;stroke-width:1;stroke-linecap:round;stroke-linejoin:round;stroke-miterlimit:4;stroke-dasharray:none;stroke-dashoffset:0;stroke-opacity:1"
       x="541.95538"
       y="332.76822"
       id="text7900-7"
       sodipodi:linespacing="100%"><tspan
         sodipodi:role="line"
         id="tspan7902-8"
         x="541.95538"
         y="332.76822"
         style="font-size:12.5px;fill:#000000;fill-opacity:1;stroke:none">1</tspan></text>
    <text
       xml:space="preserve"
       style="font-style:normal;font-variant:normal;font-weight:normal;font-stretch:normal;font-size:62.5px;line-height:100%;font-family:'Ubuntu Condensed';-inkscape-font-specification:'Ubuntu Condensed, ';text-align:center;writing-mode:lr-tb;text-anchor:middle;opacity:1;fill:#6ec60f;fill-opacity:0.39215686;stroke:#6ec60f;stroke-width:1;stroke-linecap:round;stroke-linejoin:round;stroke-miterlimit:4;stroke-dasharray:none;stroke-dashoffset:0;stroke-opacity:1"
       x="523.03375"
       y="282.12646"
       id="text7900-1-4"
       sodipodi:linespacing="100%"><tspan
         sodipodi:role="line"
         id="tspan7902-2-5"
         x="523.03375"
         y="282.12646"
         style="font-size:12.5px;fill:#000000;fill-opacity:1;stroke:none">2</tspan></text>
    <text
       xml:space="preserve"
       style="font-style:normal;font-variant:normal;font-weight:normal;font-stretch:normal;font-size:62.5px;line-height:100%;font-family:'Ubuntu Condensed';-inkscape-font-specification:'Ubuntu Condensed, ';text-align:center;writing-mode:lr-tb;text-anchor:middle;opacity:1;fill:#6ec60f;fill-opacity:0.39215686;stroke:#6ec60f;stroke-width:1;stroke-linecap:round;stroke-linejoin:round;stroke-miterlimit:4;stroke-dasharray:none;stroke-dashoffset:0;stroke-opacity:1"
       x="457.27472"
       y="296.59723"
       id="text7900-9-0"
       sodipodi:linespacing="100%"><tspan
         sodipodi:role="line"
         id="tspan7902-3-3"
         x="457.27472"
         y="296.59723"
         style="font-size:12.5px;fill:#000000;fill-opacity:1;stroke:none">3</tspan></text>
    <text
       xml:space="preserve"
       style="font-style:normal;font-variant:normal;font-weight:normal;font-stretch:normal;font-size:62.5px;line-height:100%;font-family:'Ubuntu Condensed';-inkscape-font-specification:'Ubuntu Condensed, ';text-align:center;writing-mode:lr-tb;text-anchor:middle;opacity:1;fill:#6ec60f;fill-opacity:0.39215686;stroke:#6ec60f;stroke-width:1;stroke-linecap:round;stroke-linejoin:round;stroke-miterlimit:4;stroke-dasharray:none;stroke-dashoffset:0;stroke-opacity:1"
       x="465.6781"
       y="361.00546"
       id="text7900-19-6"
       sodipodi:linespacing="100%"><tspan
         sodipodi:role="line"
         id="tspan7902-4-1"
         x="465.6781"
         y="361.00546"
         style="font-size:12.5px;fill:#000000;fill-opacity:1;stroke:none">4</tspan></text>
  </g>
</svg>
